<?xml version="1.0" encoding="utf-8"?>
<!-- Generator: Adobe Illustrator 22.1.0, SVG Export Plug-In . SVG Version: 6.00 Build 0)  -->
<svg version="1.1"
	 id="svg2" xmlns:cc="http://creativecommons.org/ns#" xmlns:dc="http://purl.org/dc/elements/1.1/" xmlns:rdf="http://www.w3.org/1999/02/22-rdf-syntax-ns#"
	 xmlns="http://www.w3.org/2000/svg" xmlns:xlink="http://www.w3.org/1999/xlink" x="0px" y="0px" viewBox="0 0 256 256"
	 style="enable-background:new 0 0 256 256;" xml:space="preserve">
<style type="text/css">
	.st0{opacity:0.5;fill:#468707;enable-background:new    ;}
</style>
<path id="mainsymbolpath" class="st0" d="M145.1,97.2c-1.3,6.9-2.8,13.7-6.1,19.3c0,0,0.3-3.1-4.6-6.4s-11.7-5.1-20.1-3.1
	c-7.9,2-13,8.1-15.5,14.8c-2.3,5.9-2.8,15-4.3,20.9c-1.3,5.9-5.6,13.5-5.6,13.5s13.2,6.9,28.2,7.1c12,0.3,17.6-1.3,19.8-2.5
	c-4.1,0.5-8.1-1.3-10.2-4.8c-2.8-4.8-0.8-11.5,4.3-14.5c5.3-3.1,12-1.5,14.8,3.3c2,3.6,1.5,8.1-1,11.5c1.5-0.5,5.1-2.3,7.6-5.9
	c3.6-5.1,4.6-14.2,3.3-20.4c-1-5.9-6.4-13-14-12.2c3.6-6.1,7.6-10.9,11.7-15L145.1,97.2z"/>
</svg>
