<?xml version="1.0" encoding="utf-8"?>
<!-- Generator: Adobe Illustrator 22.1.0, SVG Export Plug-In . SVG Version: 6.00 Build 0)  -->
<svg version="1.1"
	 id="svg2" xmlns:cc="http://creativecommons.org/ns#" xmlns:dc="http://purl.org/dc/elements/1.1/" xmlns:rdf="http://www.w3.org/1999/02/22-rdf-syntax-ns#"
	 xmlns="http://www.w3.org/2000/svg" xmlns:xlink="http://www.w3.org/1999/xlink" x="0px" y="0px" viewBox="0 0 256 256"
	 style="enable-background:new 0 0 256 256;" xml:space="preserve">
<style type="text/css">
	.st0{opacity:0.5;fill:#4F60C6;enable-background:new    ;}
</style>
<path id="mainsymbolpath_1_" class="st0" d="M121.8,137.9c0,5.9-4.9,10.8-10.8,10.8l0,0c-5.9,0-10.8-4.9-10.8-10.8l0,0
	c0-5.9,4.9-10.8,10.8-10.8l0,0C117.2,127.2,121.8,132,121.8,137.9L121.8,137.9z M120.8,101.6c-14.1,0-26.9,8.2-32.8,20.7
	c5.1-7.7,13.8-12.3,23.3-12.3c15.4,0,27.9,12.5,27.9,27.9l0,0c0,15.4-12.5,27.9-27.9,27.9l0,0c-9.5,0-18.2-4.6-23.3-12.5
	c5.9,12.8,18.7,20.7,32.8,20.7c20,0.3,36.4-16.1,36.4-36.1S140.7,101.6,120.8,101.6z"/>
</svg>
