<?xml version="1.0" encoding="utf-8"?>
<!-- Generator: Adobe Illustrator 22.1.0, SVG Export Plug-In . SVG Version: 6.00 Build 0)  -->
<svg version="1.1"
	 id="svg2" xmlns:cc="http://creativecommons.org/ns#" xmlns:dc="http://purl.org/dc/elements/1.1/" xmlns:rdf="http://www.w3.org/1999/02/22-rdf-syntax-ns#"
	 xmlns="http://www.w3.org/2000/svg" xmlns:xlink="http://www.w3.org/1999/xlink" x="0px" y="0px" viewBox="0 0 256 256"
	 style="enable-background:new 0 0 256 256;" xml:space="preserve">
<style type="text/css">
	.st0{opacity:0.5;fill:#680710;enable-background:new    ;}
</style>
<path id="mainsymbolpath_2_" class="st0" d="M168,151.8v-1l-1.2-2.2h-0.7l-0.2-2.2l-0.2-0.7l-1.2-0.2l-0.7-1.2l-2.7-1l-2.9-7.6
	l-1.7,4.1l-1.5,2.4h-0.5l-0.5,1.7l-1.2-4.4h-1l-0.7-1.2h-0.7v-0.2h0.2l1-1.5v-4.1h1.2l-0.2-0.7l0.2-0.5l-1-3.9l-0.2-0.5v-0.7
	l-3.7-13.4v-7.1h-0.2H147v7.1l-0.5,2.4l0.2,1l-0.7,1l-2.4,9.3l-4.9-0.2v-9h-0.5l-2.4-3.9l0.2-4.1l1-1.2h0.5v-4.4H137v-2.2h1.2
	l-5.6-15.9v-1.2l-0.5-1.2l-0.2-0.5v2.9l-5.1,15.9h1.5v2.2h-0.5v0.7h-3.7V104l0.7-0.7v-2.4h1.5l-3.7-9.8v-3.9l-0.7,0.2v3.4l-1.7,5.6
	v0.2l-0.7,1l-1.2,2.9h1.5v2.4l0.7,0.7l0.7,3.9h0.2l0.2,2.9v0.2l0.2,2.2h0.2v-2.2h0.7l0.2-3.2h0.2l0.2-1.2l1-1c0.5,0,1.2,0,1.7,0
	l1.2,1.2v1.5h0.5l1,1.2l0.2,4.1l-2.7,4.4l-0.5,0.2v2.4h-0.7v-0.5h-0.5v0.5h-0.5v-0.7h-0.5v0.7h-0.5v-0.2h-0.5v0.2h-0.5v-0.7h-0.5
	v0.7h-0.7v-0.5h-0.5v0.5h-0.5v-0.2h-0.5v0.2h-1v-0.5h-0.5v0.5h-0.5v-0.5h-0.5v0.5h-0.5v-0.7h-0.5v0.7h-0.5l-2.2-8.5l-0.2-0.7v-0.5
	l-2-6.1v-5.9h-0.2l-0.2,0.2v5.9l-2.9,13.4l0,0l-0.5,2l-1,4.4h1v4.4l1,1h-1.7l0.5,1.7v4.6l-1.2,0.7l-0.2,4.9h-2l-0.2-4.4l0.2-0.2
	v-0.5h0.7V132l-0.7-1l-0.2-0.7h-0.2l-1.2-5.6h-0.2v-1.5l-1-5.1v-3.4l-0.2-1.5l0,0v4.9l-1.5,6.8v1l-0.2,0.5l-0.7,3.9H98l-0.2,0.7
	l-0.5,1v4.9H98v3.2l0.2,0.7v4.1h-0.5l-1.2,0.5h-1.5l-0.2,0.2l-0.2,0.5l-2.9,0.5l-1-0.2l-1.2,0.5h-0.7l-0.5,0.2v1.5l-2.2,4.6
	l-1.5,0.2l-0.5,2.2l-0.5,0.2l-1,3.7l0.7,0.7l-0.2,2.7l0.2-0.2h0.2c-0.2,1.7,1,3.4,1,3.4c-0.5-1.7,0.2-5.4,1-6.1
	c-0.7,1.2-0.5,3.7-0.5,3.7s0.2-1.5,0.5-1.5h0.2c0-0.2,0.2-0.2,0.2-0.2c0.2,0,0.5,1.5,0.5,1.5c0-0.2,0-0.5,0-0.7c0,0.7,0,2,0.2,2.7
	c0,0-0.2-1,0.2-1.5c0.2-0.7,0.5-1,0.5-1v0.7l0.5,0.5l0.2,0.5c0,0,0.7,2.4,0.5,2.9c0.7-0.7,1-5.1,1-5.1l0.7,0.7l0.5,2.9l0.5,1.2h0.2
	l0.5,1.5c0-0.5,0-2.7,0-2.7s0.7,5.4,1.7,7.6c-0.5-1-0.5-5.4-0.5-5.4s0.2,1.7,0.2,2l0.7-3.4l1-1.2l0.5-3.7l0.7-0.5l0.2-2.4l1.7,5.1
	l1,0.7l1,3.7l1.2,1l0.2-0.2l0.5-2.4l2,2.7l1,0.7l2.7-0.5l2.9,1.2h0.7l1,0.5l1.7,3.9l1-2.2l0.5,0.7h0.5l2.9-1h1l1.5-1.2l0.2,0.5
	l4.1-0.7l4.6-2.7l0.5,0.7h1.7l1.7-3.9h0.7l2-1l1.2,1l4.6-2.7l1,1.7l0.5-0.7l0.7,2.4l1.7-3.9h1.7l2.7-3.9l0.2-1l0.2-0.2h0.2l0.2-0.7
	l1.7-1h0.7l0.2,0.2l0.2,0.2l1.5,0.2l1.5,1.5l0.7-0.5l0.7-1.7l0.5-0.2l-0.2-2c0,0,1.5,0.5,1.7,3.9c0.2,3.2,0.5,5.4,0.5,5.4
	c0.7-2,1.2-4.1,1.5-6.3c0,1,0.2,2.4,0.7,2.7c-0.2-1.7,1-2.7,0.7-4.6c0.2,1,0.5,2,0.2,2.9c0.5-0.5,0.5-1,0.5-1.7
	c0.5,0.5,0.7,1,0.7,1.7c0.5-0.7,0.2-2.2,0.7-2.9c0,0.5,0,1,0,1.2c0.2-1.2,0.7-2.4,1.7-3.2L168,151.8z M116,122.8l1-1
	c2.2-0.2,5.9,0,7.8,0.2l1.2,1.5v2.2h-2.4l-0.5,0.2l-0.2-0.2h-7.3V125h1L116,122.8z M120.9,137.7l-0.5-2.2h-3.9l-0.2-2h-0.5V132
	l0.5-1.7h-1.7l1-1v-0.7c0.2-0.5,0.7-1,1.2-1.5c2.2-0.2,5.4-0.2,7.8-0.5l1.7,2v2h-0.5l-0.7,0.5v1.5l-0.7,0.7l0,0l0,0l0,0v0.2l0,0v4.6
	h-1L120.9,137.7z M140.9,138.4l-0.7-0.7v-0.7l-1.2-0.5l-0.5-2.9l0.5-0.2l0.5-2.2l-0.5-0.5h-0.7v-0.7l2-2c0.5,0,1.2,0,1.7,0l1,1
	l-1,3.9h1.5v3.9l1,1.5h0.2v0.2H140.9z M96.5,89.8L96.5,89.8c0.2,0-0.5,0.2-0.5,0.5c-0.2,0.5-1,5.1,1.5,6.8c0-0.7,0.7-1.7,0.7-2.2
	c0.5,0.5,0.5,1.7,0.5,2l0.5,0.2c0,0,1.2-0.7,2-0.5c-0.5,0.2-1,1.2-1.5,1.7c2.2,0.5,6.1-1.7,6.3-3.2l-0.2-0.7
	c1.7,1.2,3.4,4.6,3.4,7.6c-1.7-2.2-5.1-1.2-6.3,0.7c-0.7-1.7-3.7-2.2-4.9-1c0.2-1-0.2-1-0.7-0.7c-0.2,0-1.7,1.2-1.7,1.2
	s0.7-1.7,0.7-2.2c0-0.5-0.5-1-1.5,0c0-1.5-0.7-3.2-3.7-2.9c0.2-2.7-2.4-4.1-5.6-3.9C89.7,89.8,93.1,89.3,96.5,89.8L96.5,89.8z"/>
</svg>
