<?xml version="1.0" encoding="utf-8"?>
<!-- Generator: Adobe Illustrator 22.1.0, SVG Export Plug-In . SVG Version: 6.00 Build 0)  -->
<svg version="1.1"
	 id="svg2" xmlns:cc="http://creativecommons.org/ns#" xmlns:dc="http://purl.org/dc/elements/1.1/" xmlns:rdf="http://www.w3.org/1999/02/22-rdf-syntax-ns#"
	 xmlns="http://www.w3.org/2000/svg" xmlns:xlink="http://www.w3.org/1999/xlink" x="0px" y="0px" viewBox="0 0 256 256"
	 style="enable-background:new 0 0 256 256;" xml:space="preserve">
<style type="text/css">
	.st0{opacity:0.5;fill:#E81524;stroke:#EFD620;stroke-width:3;stroke-miterlimit:10;enable-background:new    ;}
</style>
<path id="mainsymbolpath_3_" class="st0" d="M131.7,97.1l-1.8,55.9c0.1,1.9,1.6,3.5,3.3,3.6h9.2c2-0.1,3.9-1.9,4-4.8l-0.1-10
	l4.9,11.3c1.1,2.5,4.5,3.6,7.5,3.3l9.5-2.4c3-1.1,3.8-3.5,2.6-5.5l-14.3-24.1L174,99.5c0.8-1.5-0.1-3.9-1.5-4.4l-14.6-4.4
	c-2.1-0.3-3.9,0.6-4.8,2.1l-6.3,17.1l0.3-13.2c-0.3-2.9-3.1-4.9-5.5-4.6l-6.2,0.6C133.8,93,131.8,94.7,131.7,97.1L131.7,97.1z
	 M92.3,92.2c23.2-4.1,33.3,9.7,36.5,25c3.4,15.3-1.5,36.8-22.2,43.6c-5.5,1.5-9.3,0.6-10.4-3.5l-11.4-55.5
	C84.3,99.2,83.3,93.7,92.3,92.2z M105.9,136.5c6.8,0.3,9.9-7.7,8.9-13.4c-1-6.2-5.1-11.4-12.9-8.7L105.9,136.5z"/>
</svg>
