<?xml version="1.0" encoding="utf-8"?>
<!-- Generator: Adobe Illustrator 22.1.0, SVG Export Plug-In . SVG Version: 6.00 Build 0)  -->
<svg version="1.1"
	 id="svg2" xmlns:cc="http://creativecommons.org/ns#" xmlns:dc="http://purl.org/dc/elements/1.1/" xmlns:rdf="http://www.w3.org/1999/02/22-rdf-syntax-ns#"
	 xmlns="http://www.w3.org/2000/svg" xmlns:xlink="http://www.w3.org/1999/xlink" x="0px" y="0px" viewBox="0 0 256 256"
	 style="enable-background:new 0 0 256 256;" xml:space="preserve">
<style type="text/css">
	.st0{opacity:0.5;fill:#16B3BF;enable-background:new    ;}
</style>
<path id="mainsymbolpath_4_" class="st0" d="M113.4,94.5c-0.7,0-1.2,0.2-1.6,0.3c-2.4,1.7,2.6,7.5,5,14.7c2.1,6.1,3.3,14,3.8,16.5
	c-2.3-0.2-4.2-0.3-4.7-0.5c-2.3-0.5-5.9-4.2-7.8-5.4c-1.9-1.4-4-4.3-9.9-4.2c-5.9,0.2-6.1,2.9-6.8,4.3c-0.9,1.4-1,2.4-2.9,3.5
	c-1.9,1-6.2-0.5-7.1,0.3c-0.9,0.9-2.3,3.6,0.3,4.7c2.6,1,10.2,0.7,11.4,0.9c0.5,0,2.6,1,6.1,1.7c3.5,0.9,7.8,1.4,9,2.1
	c1.2,0.9,4.3,4.9,7.3,7.1c2.9,2.4,6.8,5.9,11.6,7.5c4,1.4,5.9,2.6,10.1,2.4c3.3,2.4,6.4,5,8.8,7.8c0.7-1.6,2.1-2.4,3.5-2.9
	c-0.7-1.6-0.5-2.9,0.2-4.5c-2.3-0.2-4.5-0.2-7.6-1.2c5.2-1.7,8.5-5.9,10.7-8.1c2.6-2.4,12.3-8.8,12.3-8.8l-1.2-0.2l3.5-2.6
	c0,0-4.2,0.7-6.6,0.7c-2.3,0-15.1-2.8-20.5-3.3c0.9-10.4-2.6-18.2-4.7-14.2c-2.1-8-10.6-19.1-10.9-12.5
	C122.9,98.1,116.9,94.5,113.4,94.5z"/>
</svg>
