<?xml version="1.0" encoding="utf-8"?>
<!-- Generator: Adobe Illustrator 22.1.0, SVG Export Plug-In . SVG Version: 6.00 Build 0)  -->
<svg version="1.1"
	 id="svg2" xmlns:cc="http://creativecommons.org/ns#" xmlns:dc="http://purl.org/dc/elements/1.1/" xmlns:rdf="http://www.w3.org/1999/02/22-rdf-syntax-ns#"
	 xmlns="http://www.w3.org/2000/svg" xmlns:xlink="http://www.w3.org/1999/xlink" x="0px" y="0px" viewBox="0 0 256 256"
	 style="enable-background:new 0 0 256 256;" xml:space="preserve">
<style type="text/css">
	.st0{opacity:0.5;fill:#8E24C6;stroke:#F4E46C;stroke-width:0.25;stroke-miterlimit:10;enable-background:new    ;}
</style>
<path id="mainsymbolpath_5_" class="st0" d="M150.3,112.8c-0.8-1-0.8-1-1.8-1.8c-1.3-1-1.5-1-2-0.3c0,0.3-0.3,0.3-0.3,0.3
	c-0.3,0-1-0.5-1-0.8c0,0-0.5-0.3-0.8-0.5c-0.8-0.3-1.5-1-1.5-1.3c0-0.3,0-0.3,0-0.5l0.3-0.3c0,0,0.5,0.3,1.3,0.5l1,0.5h1h1l1,0.5
	c0.5,0.3,1.3,0.5,1.3,0.8c0.3,0.3,1.5,1.8,1.5,2c0,0,0,0.5-0.3,0.8c0,0.5,0,0.5,0,0.5v0.3h-0.3C151,113.8,150.5,113.3,150.3,112.8
	L150.3,112.8z M125.3,100.9c-8.3,0-16.1,2.8-22.4,7.1c0,0.3,0,0.5-0.3,0.8c0,0.3-0.3,0.3-0.8,0.5c-0.8,0.3-0.8,0.5-0.8,1
	c0,0.3,0,0.5-0.3,0.5c-0.5,0.3-1,1-1.3,1.3c-0.3,0.3,0,0.5,0,0.8c0,0,0.3,0,1.3-0.8l0.5-0.3l0.3,0.3c0.3,0,0.3,0.3,0.3,0.3
	c0,0.3-1.5,1.3-2,1.5c-0.3,0.3-0.8,0.5-1,0.5c-0.3,0.3-0.5,0.5-1,1c-0.5,0.8-0.5,1-0.5,1.5c0.3,0.5,0.3,0.5-0.3,0.8
	c-0.3,0-0.5,0.3-0.5,0.5c-0.3,0.3-0.3,0.3,0.8,1.3c1,1,1,1.3,2.3,1h1l1.5-0.5c0.8-0.3,1.5-0.8,1.8-0.8c0.3,0,0.5-0.5,1-1
	c0.8-0.8,2-1.5,2.5-1.5c0.3,0,3,0.8,3.3,0.8c0,0-1.5,1-2,1h-0.3v0.8c0,0.8,0,0.8,0,1c0.3,0.3,0.3,0.3,1.5-1c0.5-0.5,1-0.8,1.3-0.8
	c0.3,0,0.5,0.3,0.8,0.5c0,0.3,0.3,0.3,0.3,0.5c0.3,0.3,0.3,0.3,1,0.3h0.8l0.8-1c0.3-0.5,0.8-1,1-1.3c0.3-0.3,1.3-0.8,1.5-0.8
	c0,0,0.3,0,0.5,0.3c0.3,0.3,0.3,0.3,0.5,0.3c0.3,0,0.5,0,0.5,0.3c0,0.3,0,0.3-0.3,0.5c-0.3,0.3-0.5,0.3-0.5,0.3
	c-0.5-0.3-0.5-0.3-0.8,0c-0.3,0-0.3,0.3-0.3,0.3s0,0.3,0.3,0.3c0.3,0.3,0.3,0.3,0.3,0.3s-0.3,0.3-0.3,0.5c-0.5,0.5-0.5,0.8,0,1
	c0.3,0.3,0.5,0.3,0.8,0.3c0.3,0,0.3,0,0.5,0c0.3,0,0.3,0.3,0.3,0.3s0,0,0,0.3c0,0.3-0.3,0.3-1.3,0.8s-1.3,0.5-1.3,0.8s0.3,0.5,1,0.3
	c0.8-0.3,1-0.3,1.3,0.5c0.3,0.5,0.3,0.5,1,0.3c0.8-0.5,0.8-0.5,0.8-0.8c0-0.3,0-0.3,0.3-0.5c0.3,0,0.3,0,0.8,0.3
	c0.3,0.3,0.8,0.5,0.8,0.8c0.5,0.5,0.5,0.5,1.3,0c0.5-0.5,0.8-0.5,1,0c0,0.3,0,0.3-0.8,0.8c-0.5,0.3-1,0.5-1,0.8
	c-0.8,0.5-0.8,0.5-1.3,0.5c-0.8-0.3-1,0-1.8,0.3l-0.8,0.3l-0.8-0.3l-0.8-0.3l-0.5,0.3l-0.5,0.3v0.8v0.8l0.3,0.3
	c0.5,0.8,0.5,0.5,0.3,1c0,0.3-0.3,0.3-0.5,0.3c-0.8,0.3-0.8,0.3-1,0.8c0,0.3-0.3,0.5-0.3,0.5c0,0.3,0.5,0.8,0.5,1
	c0.3,0,0.3,0.3,0,0.5c0,0.3,0,1.8,0.3,1.8c0,0,0.3,0,0.5-0.3c0.5-0.3,0.3-0.3,2.3,0c0.5,0,1.3,0.3,1.3,0.3s0.3,0.5,0.5,0.8
	c0.3,0.5,0.3,0.8,0.3,1c0,0.3,0.3,0,1.5-0.3l1-0.3h0.8c0.5,0,1,0,1.5,0h0.5l0.5-0.5c0.3-0.3,0.5-0.5,0.5-0.5s1,0.3,1.3,0.5
	c0,0,0,0.3,0,0.5c-0.3,0.3,0,0.5,0.3,0.8c0.3,0.3,0.3,0.3,0.5,0c0.3-0.3,0.3-0.3,0-0.8c-0.3-0.5-0.3-0.5,0.5-0.8l0.5-0.3l1,0.3
	c0.5,0,1,0.3,1,0.3v0.3c-0.3,0.3,0,0.5,0.3,0.5s0.5,0.3,1.5,0.3h1.3l0.5,0.3c0.3,0.3,0.5,0.5,0.8,0.5c0.5,0.3,2,0.8,3.5,1.3
	c1.3,0.3,1.5,0.3,1.8,0l0.3-0.3c0-0.3-1-1.8-1-1.8s-0.3-0.3-0.5-0.3c-0.3-0.3-0.3-0.3-1-0.3c-0.8,0-0.8,0-1-0.3
	c-0.3-0.3-0.3-0.3-0.3-0.3v-0.3c-0.3-0.3-0.3-0.5,0-0.8s0.3-0.3,0.3,0c0,0,0.3,0,0.5,0c0.5,0,0.5,0,1-0.5c0.3-0.3,0.3-0.5,0.3-0.5
	c-0.3-0.3-0.8-0.5-3-0.8l-2-0.3l-2.3-0.8l-2.3-0.8l-1.3-1.3c-0.8-0.8-1.3-1.3-1.5-1.3c0-0.3,0.3-0.8,0.8-1c0.5-0.5,0.8-0.5,1.8-0.3
	c0.3,0,0.5,0,1,0.5c0.3,0.3,0.5,0.5,0.5,0.5s0.3,0,0.3-0.3l0.3-0.3l0.3,0.3c0.3,0.3,0.3,0.3,0,1c-0.3,0.5-0.3,0.8,0.5,1
	c0.8,0.3,0.8,0.3,1.8,0c0.8-0.3,0.8-0.3,1.8-0.8c0.5-0.5,0.8-0.5,0.8-0.8c0-0.3-0.3-0.3-0.8-0.5c-0.8-0.3-1-0.3-1.5-1.3l-0.5-0.8
	l0.5-0.5c0.3-0.3,0.5-0.5,0.8-0.8c0.3-0.3,0.3-0.5,0.3-0.8s-0.3-0.5-0.3-0.5c0-0.3,0.3-0.8,0.3-0.8s0.3,0.3,0.5,0.5
	c0.5,0.5,0.5,0.5,0.8,0.5l0.3-0.3c0-0.3-0.3-1.8-0.3-2.3c0-0.3,0-0.3,0-0.5l0.3-0.3c0,0,0.3,0.3,0.3,0.8c0.3,0.8,1,2,1.3,2.3
	c0,0,0.3,0.3,0.5,0.5c0.3,0.3,0.5,0.3,0.5,0.3s0.5,0,1,0c0.8,0,0.8,0,1.5,0.3c0.5,0.3,0.8,0.3,1.3,0.8c0.8,0.5,0.8,0.5,1.5,0.5
	c0.5-0.3,0.5,0,0.8,0c0.3,0.3,0.3,0.3,1.3,0.3s1,0,3-0.8c0.8-0.3,1-0.5,1.3-0.8c0.3-0.3,0.3-0.5,0.3-0.5c0-0.3-0.5-0.8-0.5-0.8
	s-0.5,0.3-1,0.8l-1,0.8H148h-1.3l-1-0.5c-0.8-0.3-1-0.5-1.3-0.8c-0.3-0.3-0.5-0.5-0.5-0.5c0-0.3-0.3-0.8-0.3-0.8l-0.3,0.3l-1-1
	l-0.8-0.8c-0.5-0.5-0.8-0.8-0.8-1c-0.3-0.5-0.3-0.5,0-0.8c0.3-0.3,0.3-0.3,1.3-0.8c1.3-0.5,1.3-0.5,1.5-1c0.3-0.3,0.3-0.5,0.3-0.5
	c0.3,0,1.8,1,1.8,1s-0.3,0.3-0.8,0.5c-1,0.5-1,0.5,0,1.3c0.8,0.5,1.8,0.8,2,0.8c0,0,0.3-0.3,0.5-0.3l0.5-0.3l1,0.3
	c1.3,0.3,1.3,0.3,2-0.5l0.5-0.5v-1c0-1.3,0.3-1.3,0.8,0c0.3,0.8,0.3,0.8,0.3,1.8v1l1,0.3c0.5,0.3,1,0.3,1,0.3c0.3,0,0.3,0,0.5,1.5
	c0.3,0.8,0.3,1.3,0.3,2.8c0.3,2.5,0,2.3,2,3l1.8,0.5l1-0.3l1-0.3l0.5,0.5c0.3,0.3,0.5,0.3,0.5,0.3c-0.8-2.8-2-5.3-3.5-7.6h-0.3
	c0,0,0,0-0.3,0c0,0-2.8-2.8-2.8-3.3c0-0.3-0.3-0.5-0.3-0.5c0-0.3,0-0.3,0.3-0.5l0.3-0.3c-4.3-5.3-9.8-9.6-16.1-12.1l-0.3,0.3
	c-1,0.5-0.8,0.5-1.8-0.5l-0.5-0.8C133.4,101.4,129.3,100.9,125.3,100.9L125.3,100.9z M141.7,109.5L141.7,109.5c0.3,0,1.3,1,1.3,1.3
	c0,0,0,0.3-0.3,0.3c-0.3,0-0.3,0-0.3,0l-1.5-1l0.3-0.3C141.4,109.7,141.4,109.5,141.7,109.5z M138.2,110
	C138.4,110,138.4,110,138.2,110c0.5,0,0.8,0,1.3,0.5c1.3,1,1.5,1.3,1.5,1.5c0,0,0.3,0.5,0.5,1c1,1.5,1,1.8,1,2.3l-0.3,0.3
	c-0.3,0-1.3-1-1.5-1.5c-0.3-0.3-0.5-0.5-1.5-1c-0.5-0.3-1.3-0.8-1.5-0.8c-0.3-0.3-0.5-0.3-0.8-0.3s-0.3,0-0.8,0c-0.5-0.3-1-1-1-1
	s0-0.3,0.3-0.3c1-0.3,1.3-0.3,1.5-0.3c0.3,0,0.3,0,0.5-0.3C137.9,110,138.2,110,138.2,110L138.2,110z M146.7,112.3
	c0.3,0,0.5,0.3,0.8,0.5c0.3,0.3,1,1.8,1.5,2.5c0.3,0.8,0.3,0.8,0.3,1.3c0,0.3,0,0.8,0,0.8c0,0.3-0.5,0.3-1,0c-0.8-0.5-0.8-0.5-1-2
	c0-0.3-0.3-0.5-0.3-0.5c-0.3-0.3-1-1.5-1-1.5s0-0.3,0.3-0.5C146.5,112.3,146.5,112.3,146.7,112.3z M130.3,114.3
	c0.3,0,0.8,0.3,1.3,0.8s0.5,0.5,0,0.8c-0.3,0-0.3,0-0.3,0c-0.3,0-1.5-1-1.5-1.3c0,0,0-0.3,0.3-0.3
	C130.1,114.3,130.3,114.3,130.3,114.3z M111.9,114.3c0.3,0,0.5,0.3,0.5,0.8c0,0.3-0.5,1-0.8,1c-0.3,0-0.5,0.3-0.5,0.3l-0.3,0.3
	c-0.3,0-0.8-0.5-1-0.8c-0.3-0.5-0.3-0.5,1-0.8C111.7,114.8,111.9,114.8,111.9,114.3C111.7,114.3,111.9,114.3,111.9,114.3z
	 M124.3,114.3C124.5,114.3,124.5,114.3,124.3,114.3c0.3,0,0.8,0.8,0.8,1c0,0.3,0,0.3-0.3,0.5c-0.3,0.3-0.5,0.3-0.8,0
	c0-0.3-0.3-0.3,0-0.8C124,114.5,124.3,114.3,124.3,114.3L124.3,114.3z M122.5,115.8C122.8,115.8,122.8,115.8,122.5,115.8
	c0.5,0.3,0.5,0.5,0.3,0.8l-0.3,0.3l0.3,0.5c0.3,0.5,0.3,0.5,0,0.8c-0.3,0.5-0.8,1-1.3,1.3c-0.5,0.3-0.5,0.3-0.8,0
	c-0.3-0.3-0.5-0.3-0.5-0.5c0-0.3-0.3-0.3-0.8-0.3c-0.5,0.3-0.5,0.3-0.8,0c-0.3-0.3-0.3-0.3,0-0.5c0.3,0,0.5-0.3,0.8-0.5
	c0.3-0.3,0.5-0.5,0.5-0.5s0.3,0,0.5,0.3c0.3,0,0.5,0.3,0.5,0.3s0.3-0.3,0.3-0.5c0-0.3,0.3-0.5,0.5-0.8
	C122.5,115.8,122.5,115.8,122.5,115.8L122.5,115.8z M114,116L114,116c0.3,0,0.3,0.5,0,0.8l-0.3,0.3c-0.3,0-0.5,0.3-0.5,0.5
	c-0.3,0.3-0.5,0.3-0.5,0.3c-0.3,0-0.5-0.3-0.8-0.5c0-0.3,0-0.5,0.5-0.8C112.7,116.3,113.7,116,114,116L114,116z M130.6,116.3
	c0.3,0,0.3,0,0.8,0s1,0.3,1,0.3c0.3,0,0.8,0.5,0.8,0.8c0,0.3-0.5,0.8-0.8,0.8c-0.5,0-0.5,0-1-0.3C130.3,117,130.1,116.8,130.6,116.3
	C130.3,116.3,130.3,116.3,130.6,116.3z M158.3,121.3c0.3,0,0.3,0,0.8,0.3c0.3,0,0.5,0.3,0.5,0.3s0,0.3-0.3,0.3c0,0-0.3,0.3-0.5,0.3
	h-0.3l-0.3-0.3C158.1,121.3,158.1,121.3,158.3,121.3z M159.3,123.3L159.3,123.3c0.3,0.3,0.5,0.8,1,1.3c0.3,0.5,0.8,1,0.8,1
	s0,0.3-0.3,0.8c0,0.3-0.3,0.5-0.3,0.5s-0.3-0.3-0.5-0.5c-0.5-0.5-0.8-0.8-1.3-0.5c-0.3,0-0.3,0-0.5-0.3c-0.3-0.3-0.3-0.3,0-1
	C158.3,124.3,159.1,123.3,159.3,123.3L159.3,123.3z M163.9,138.2c-0.3,0-0.3,0.3,0,1.3c0,0.5,0,1.3,0,1.5c0,0.5,0,0.5-0.5,1.3
	c-0.5,0.5-1.3,2-1.3,2.3c0,0,0.3,0.5,0.8,0.8l0.8,0.5v0.3c0,0.3,0,0.5,0,0.8s-0.5,2-0.8,3c0,0.3-0.3,0.5-0.3,1c0,0.5,0,0.5-0.5,1.3
	c-0.5,0.8-2.3,3.3-2.8,3.8c-0.3,0.3-1,0.8-1.8,1c-0.8,0.5-1.8,1-2,1.3c-0.3,0.3-0.8,0.5-1,0.5c-0.3,0-0.3,0-0.8,0.8
	c-0.3,0.3-0.5,0.8-0.5,0.8s-0.3,0-0.5,0c-0.5-0.3-0.8-0.3-1,0c0,0-0.5,0.3-1.3,0.5l-1,0.5l-0.3,0.5c-0.3,0.3-0.3,0.8-0.5,0.8
	c-0.3,0-0.3,0-0.5,0c-0.3,0-0.8,0.3-2.3,1c-1,0.5-2,1-2.3,1.3c-0.3,0.3-1.3,0.5-3.3,1.3c-2.5,0.8-2.8,1-3,1.3
	c-0.3,0.3-0.3,0.5-0.3,0.5s0.3,0,0.3,0.3s-1,0.8-1.3,0.8c0,0-0.3,0-0.3,0.3c-0.3,0.3-0.8,0.5-1.5,0.5s-0.8,0.3-0.8,0.3
	s0.3,0.3,0.5,0.8c0.8,1,0.8,1,0.8,1.5s0,0.5,0.3,0.8c0.3,0.3,0.5,0.5,0.5,0.5s-0.3,0.3-0.5,0.3c-0.3,0-0.8,0.3-0.8,0.3l-0.3,0.3v0.5
	c0,0.5,0,0.5,0,0.8c-0.3,0.3-0.3,0.3-0.8,0c-0.3-0.3-0.3-0.3-0.3-0.5c0.3-0.5,0.3-0.5,0-0.8s-0.3-0.3-0.8,0l-0.3,0.3l-0.8-0.5
	c-0.5-0.3-1-0.5-1-0.5c-0.3,0-1-0.8-1.8-1.3c-1.5-1-1.5-1-2.5-1.5c-1-0.3-1-0.3-1.3-0.3c-0.3,0.3-0.3,0.3,0,0.8
	c0.3,0.3,0.3,0.5,0,0.5c-0.3,0.3-0.5,0.3-1.5,0c-0.5,0-1-0.3-1-0.3s-0.8,0.5-1.8,1c-1.3,0.8-1.5,1-1.8,1.3c-0.3,0.5-0.3,0.8,0,1
	c0.3,0.3,0.3,0.3,0.8,0c0.3-0.3,0.5-0.3,0.5-0.3s0.3,0.3,0.5,0.3c0.3,0.3,0.5,0.5,1,0.5c0.5,0.3,0.5,0.3,1,0.3c0.3,0,0.5,0,0.8,0
	c0.3,0,0.3,0,1,0.8c1,1,1,1-0.3,0.5l-1-0.5l-0.3,0.3c-0.5,0.5-0.8,0.5-1.3,0.3l-0.8-0.3l-1.3,0.3c-1,0-1.3,0.3-1.5,0.3
	c-0.3,0.3-0.3,0.3-0.5,0l-0.3-0.3c0,0,0.3-0.3,0.3-0.5c0.3-0.3,0.3-0.5,0.3-0.5s0-0.3-0.3-0.5c-0.3-0.3-0.3-0.3-0.5-0.3
	c0,0-0.5,0.3-1,0.3l-0.8,0.3L115,175c-0.3,0-0.5-0.3-0.5-0.3c-0.3,0-0.8,0.3-0.8,0.5s0.3,0.5,1,1.3c0.3,0.3,0.5,0.5,0.5,0.5
	s0,0.3,0,0.5c3,0.8,6.3,1.3,9.6,1.3c21.4,0,38.8-17.4,38.8-38.8C164.1,139.2,164.1,139,163.9,138.2
	C164.1,138.2,164.1,138.2,163.9,138.2L163.9,138.2L163.9,138.2z M140.4,173c0.3,0,0.3,0,0.3,0.3c0,0.3-1.3,1-1.8,1.3
	c-0.3,0-1,0.3-1.5,0.5c-1.3,0.5-1.8,0.5-2.3,0.5c-0.5-0.3-0.5-0.3,0.5-0.8c0.5-0.3,0.8-0.5,1.8-0.8c0.5-0.3,1.5-0.5,2-0.5
	C139.9,173,140.2,173,140.4,173L140.4,173z M126.8,173.8h0.3c0.3,0,0.8,0.3,1,0.3c0.8,0,0.8,0,1,0.3c0.3,0.3,0.3,0.3,0.3,0.5
	c0,0-0.5,0-1,0h-1l-0.3-0.5C126.6,173.8,126.6,173.8,126.8,173.8L126.8,173.8L126.8,173.8z M127.3,175.3c0.3,0,0.3,0,0.8,0
	c0.3,0,0.8,0.3,1.3,0.3s0.5,0,0.8,0.3c0.3,0.3,0.3,0.5,0,0.5c-0.8,0.3-2.3,0.3-2.5-0.3C127.3,175.8,127.3,175.5,127.3,175.3
	C127.1,175.3,127.1,175.3,127.3,175.3L127.3,175.3z M111.7,121.3c1-0.8,1-0.8,1-1c0-0.3-0.8-0.3-1,0c0,0-0.5,0-0.8,0.3h-0.5v0.5
	c0,0.3,0,0.5,0.3,0.8c0,0.3,0.3,0.3,0.3,0.3C110.7,122.1,111.2,121.6,111.7,121.3z M137.7,125.6c0.3-0.5,0.3-0.5,0-0.8
	c-0.3-0.3-0.5-0.3-0.8,0s-0.3,0.5,0,0.8C137.4,126.1,137.7,126.1,137.7,125.6L137.7,125.6z M149.2,126.1c0.3-0.3,0.3-0.3,0.8,0
	c0.5,0.3,0.8,0.3,0.8-0.3c0,0,0-0.5,0.3-0.8c0-0.5,0-0.5,0-0.5c-0.3,0-0.5,0-2,0c-0.8,0-1.5,0-1.8,0c-0.5,0-0.5,0-0.5,0.3
	c-0.3,0.3,0.3,0.8,0.8,1c0.3,0,0.5,0.3,0.8,0.3C149,126.4,149,126.4,149.2,126.1L149.2,126.1z M110.2,126.6c0.3-0.3,0.3-0.3,0-0.5
	c-0.3-0.3-0.5-0.3-0.5,0.3C109.7,126.6,109.9,126.9,110.2,126.6z M111.7,130.4c0.3,0,0.3-0.3,0.3-0.3c0-0.3,0-0.3-0.3-0.5
	c-0.3-0.3-0.8-0.8-1-1.3c-0.5-0.8-0.5-0.8-1-0.8c-0.3,0-0.3,0-0.3,0s1.3,2.5,1.5,2.8C110.9,130.7,111.4,130.7,111.7,130.4z
	 M145.7,131.2c1.3,0,1.8,0,2-0.3c0.3,0,0.3,0,0.8,0l0.5,0.3l1.3-0.3c0.8-0.3,1.3-0.3,1.3-0.3s0-0.3,0.3-0.3c0-0.3,0-0.8-0.5-1
	c-1-0.5-3-1.8-3.3-1.8s-0.8-0.3-1-0.5c-0.8-0.5-0.8-0.5-1.3-0.3c-0.5,0.3-0.5,0.3,0,0.8c0.3,0.3,0.5,0.3,0.5,0.3s-0.5,0.3-0.8,0.3
	c-0.3,0-1,0.3-1,0.5c0,0,0,0.3,0,0.5c0.3,0.5,0,0.5-0.8,0.5c-0.5,0-0.8,0-0.8,0.3c-0.3,0.3-0.3,0.5,0,1
	C143.5,131.4,143.2,131.2,145.7,131.2L145.7,131.2z M119.5,134.9c0,0,0-0.3,0-0.5c0-0.5,0-0.5-0.5-0.5s-0.5,0-0.5,0.5
	c0,0.5,0,0.5,0.5,0.5C119.3,134.9,119.5,134.9,119.5,134.9L119.5,134.9z M132.4,135.9c0-0.3-0.5-0.5-0.8-0.5c-0.3,0-0.3,0.3,0.3,0.5
	C132.1,136.2,132.4,136.2,132.4,135.9L132.4,135.9z M152.5,137.5c0.5-0.3,0.5,0,1.3-1c0.5-0.5,0.5-0.8,0.5-1c0-0.5-0.3-0.5-1,0
	c-0.3,0.3-0.8,0.3-1,0.5c-0.3,0-0.5,0.3-0.8,0.5c-0.3,0.3-0.5,0.5-0.8,0.5c-0.3,0-0.5,0.3-0.5,0.3c0,0.3,1.5,0.5,1.8,0.5
	C152,137.5,152.3,137.5,152.5,137.5L152.5,137.5z M138.2,138.5c0-0.3,0-0.5-1-0.8l-0.5-0.3l-0.3,0.3c-0.3,0.3-0.3,0.3,0,0.8
	c0.3,0.3,0.8,0.5,1.3,0.5C137.9,138.7,138.2,138.7,138.2,138.5L138.2,138.5z M160.3,138.7c0.3-0.3,0.3-0.8,0-1c0,0-0.3-0.3-0.5-0.3
	c-0.3,0-0.8,0.5-0.8,0.5c0,0.3,0.3,0.8,0.3,0.8C159.8,139,160.3,138.7,160.3,138.7L160.3,138.7z M135.6,139c0.3-0.3,0.3-0.3-0.5-0.8
	c-0.3-0.3-0.5-0.5-0.5-0.5s0-0.3,0.3-0.3s0.3-0.3,0.3-0.5s0.3-0.3,0-0.5c0-0.3-0.3-0.3-0.5-0.3c-0.8-0.3-0.8-0.3-1.3,0.8
	c-0.3,0.5-0.5,0.8-0.5,0.8s0,0.3,0.3,0.3c0,0.3,0,0.3-0.3,0.5c-0.3,0.3-0.3,0.5-0.3,0.5s0,0.3,0.3,0.3s0.5,0.3,1.5,0.3
	C135.4,139,135.4,139,135.6,139L135.6,139z M144.7,139.2c0.3-0.3,0.5-0.5,0.5-0.5s0.3,0,0.5,0.3c0.3,0.3,0.5,0.3,0.5,0.3
	s1-0.5,1.5-0.8c0.3-0.3,0.5-0.3,0.8-0.3c0.5,0,0.5,0,0.5-0.3s0-0.3-0.3-0.3s-0.3-0.3-0.5-0.8c-0.3-0.5-0.5-0.8-0.8-0.8
	c0,0-0.8,0.3-1.8,0.3l-1.8,0.3l-1,0.8c-0.5,0.5-1,0.8-1,1v0.3c0,0.3,0.5,0.5,0.5,0.5s0.3-0.3,0.5-0.3s0.5-0.3,0.5-0.3
	s0.3,0.3,0.3,0.5c0.3,0.3,0.3,0.5,0.5,0.5C144.2,139.7,144.5,139.5,144.7,139.2L144.7,139.2z M157.6,140.7c0.8-0.3,1-0.5,1-0.5
	s0-0.8-0.3-1.3c-0.3-0.8-0.3-1.3-0.3-2s0-0.8-0.3-1c-0.3-0.3-0.3-0.3-0.5,0c0,0-1,1.8-1.3,2.5c0,0.3-0.3,0.3-0.3,0.3
	c-0.5,0-2,0.8-2,1c0,0,0.8,0.3,1.3,0.3c0.3,0,0.3,0,0.8,0.5c0.3,0.3,0.5,0.5,0.5,0.5C156.6,141.2,157.1,141,157.6,140.7L157.6,140.7
	z M152.8,141.2c0.3-0.3,0.3-0.5,0-0.5s-0.3,0-0.3,0c-0.3,0-0.3,0.3,0,0.5C152.5,141.5,152.8,141.5,152.8,141.2L152.8,141.2z
	 M104.4,141.5c0.3-0.3,0-0.5,0-0.8c0,0-0.3-0.3-0.5-0.3c-0.3,0-1-0.5-1.5-1c-1-0.5-1.3-0.8-1.5-1.3c-0.3-0.5-2.5-4.3-3-5l-0.3-0.3
	l0.3-1.3c0.3-1,0.3-2,0-2.5c0,0,0-0.3,0.3-0.5l0.3-0.3l0.3,0.5c0.3,0.3,0.5,0.8,0.8,1.5c0.5,1,0.5,1,0.8,1c0.3,0,0.3,0,0.5-0.3
	c0.3-0.5,3.3-3,3.3-3s0.3,0.3,0.3,0.5c0,0.5,0,0.5-0.5,0.8c-0.3,0.3-0.5,0.5-0.5,0.5s0.3,0.3,0.3,0.5c0.5,0.5,0.5,0.8,0.5,1.3
	c0,1.3,0,1.5,0.5,2c0.3,0.3,0.5,0.5,0.5,0.5s0.3-0.3,0.3-0.5c0.3-0.5,0.3-0.5,0.8-0.8s0.5-0.3,0.5-0.8c0-0.3,0-0.5,0.3-0.5
	c0,0,0.3,0,0.3,0.3c0.3,0.5,0.8,0.8,1.3,1l0.5,0.3l0.3-0.3c0.3,0,0.5-0.3,0.5-0.5c0.3-0.3,0.3-0.3,0-0.5c0-0.3-0.3-0.5-0.5-0.8
	c-0.3-0.3-0.3-0.3-0.3-0.5c0,0,0.3-0.3,0.3-0.5c0.3-0.3,0.3-0.5,0-0.8c-0.3,0-0.3,0-0.5,0c-0.3,0-0.5,0.5-1,0.8
	c-0.5,0.5-0.8,0.8-1,0.8h-0.3c0,0,0.3-0.5,0.5-0.8l0.8-0.8v-0.5c0-0.3-0.3-1.3-0.3-2c-0.3-1-0.3-1.8-0.3-2c0-0.5,0-0.8-0.3-0.8
	l-0.3-0.3l-0.5,0.3c-0.3,0-0.8,0.3-1.3,0.5c-0.8,0.3-1,0.5-2.8,2.3c-0.5,0.5-0.8,0.8-0.8,0.8s-0.3-0.3-0.5-0.5l-0.5-0.5v-0.5
	c0-0.8,0-0.8-2-1.3c-1-0.3-1.8-0.3-2-0.3c-0.3,0-0.5,0.3-1,1c-0.5,0.8-0.5,1-0.3,1.3l0.3,0.3l-0.5,0.5c-0.3,0.3-0.5,0.5-0.5,0.3
	c-0.3,0-0.3,0-1,0c-0.5,0-1,0.3-1,0.3c-0.3,0.3-0.3,0.3,0,0.8c0.3,0.8,0.5,1,0.8,1c0.5,0,0.8,0,1,0.8c0.3,0.3,0.3,0.8,0.3,0.8
	c0,0.3,0.3,0.5,0.8,0.8c0.5,0.5,0.8,0.5,0.8,1c0,0.5,0.5,1,2.5,3.8c2.5,3.3,3,3.8,4.5,4.5C103.4,141.2,103.9,141.5,104.4,141.5
	C104.1,141.7,104.1,141.5,104.4,141.5L104.4,141.5z M106.7,142.7c0-0.3,0-0.3-0.3-0.8c-0.3-0.5-0.5-0.5-0.8-0.5
	c-0.3,0-0.5,0.3-0.5,0.5s0,0.3,0.8,0.8C106.1,142.7,106.4,143,106.7,142.7C106.4,143,106.7,143,106.7,142.7z M159.1,143.3
	c1.5-0.5,1.8-0.5,1.8-0.8c0.3-0.8,0.3-1,0-1.3c0,0-0.3,0-0.5,0.3c-0.5,0.3-1.5,0.8-2,1c-0.5,0.3-0.8,0.3-0.8,0.5
	c-0.3,0.3,0,0.8,0.3,0.8C157.8,143.5,158.6,143.5,159.1,143.3L159.1,143.3z M150.5,144.3c0.5-0.5,0.5-0.8,0.3-0.8c0,0,0-0.3,0-0.5
	s0-0.5,0-0.5c0-0.3-0.5-0.3-0.8-0.3c-0.3,0-0.5,0.5-0.5,0.8c0,0,0,0.5-0.3,0.8c0,0.3-0.3,0.8,0,0.8c0,0.3,0.3,0.5,0.3,0.5
	C150,144.8,150.3,144.8,150.5,144.3L150.5,144.3z M152.5,145.5c0.5-0.5,0.5-0.8,0.3-1.3l-0.3-0.3l-0.3,0.3c-0.5,0.3-0.8,1.3-0.5,1.8
	C152,146,152,146,152.5,145.5L152.5,145.5z M122.3,148.8l0.3-0.3c0-0.3-0.3-0.5-0.5-0.5c0,0-0.3,0.5-0.3,0.8
	C121.5,149.1,121.8,149.1,122.3,148.8L122.3,148.8z M116,150.1C116,149.8,116.2,149.8,116,150.1c0.3-0.5-1.3-1.3-1.5-1.3
	c-0.3,0-0.5,0.5-0.5,0.8s0.3,0.3,0.8,0.5C115.2,150.3,115.5,150.3,116,150.1z M160.1,149.8c0.5-0.5,2.8-3.3,2.8-3.5
	s-0.3-0.3-0.8-0.3c0,0-0.3,0.3-0.5,0.5c-0.3,0.3-0.8,1-1.3,1.8c-0.8,1-1,1.3-1,1.5s0,0.3,0,0.5C159.3,150.3,159.6,150.3,160.1,149.8
	L160.1,149.8z M154.8,150.8c0.3-0.3,0.3-0.3,0-0.3c-0.3-0.3-0.5-0.3-0.8-0.3c-0.3,0-0.3,0.3,0,0.5
	C154.5,151.1,154.8,151.1,154.8,150.8z M119.5,152.6c0.3-0.3,0.3-0.3,0.3-0.8v-0.5h0.5c0.5,0,0.5,0,0.8-0.3v-0.3c0,0-1.3-1-1.8-1.3
	c-0.3-0.3-0.8-0.3-0.8,0c0,0,0,0.3,0,0.8s0.3,1,0.3,1.5C118.7,152.8,119,153.1,119.5,152.6L119.5,152.6z M157.6,152.8
	c0.3-0.5,0.5-1.3,0.5-1.3l-1.3,0.8c0,0,0,0.3,0.3,0.5C157.1,153.3,157.3,153.3,157.6,152.8z M123.8,158.4c0.3-0.3,0.8-0.8,0.5-1
	c0,0-0.5-0.5-0.8-0.8c-0.5-0.3-1-0.8-1-0.8s-0.3-0.3-0.5-0.3c-0.5,0-0.5,0-1,0.3c-0.3,0.3-0.5,0.3-0.5,0.5c0,0,0,0.3,0.3,0.5
	c0.3,0.3,0.5,0.5,1,0.8c0.3,0.3,0.8,0.5,1,0.5C123.5,158.6,123.5,158.6,123.8,158.4z M117,158.4c0-0.3,0-0.3,0.3-0.5
	c0.3-0.3,0.5-0.3,1.3-0.3c0.5,0,0.5,0,0.5,0s0-0.3,0-0.5c-0.3-0.5-0.5-0.8-0.8-0.8c-0.3,0-2,1-2.3,1.5c-0.3,0.3-0.3,0.3,0,0.5
	c0,0.3,0.3,0.3,0.5,0.5c0.3,0.3,0.3,0.3,0.5,0C116.7,158.6,117,158.6,117,158.4L117,158.4z M101.9,159.9c0,0,0.3-0.3,0.3-0.5
	c0-0.3,0-0.5-0.5-1c-0.5-0.5-0.5-0.8-0.5-1c0-0.5-0.3-0.8-0.3-0.8h-0.3c-0.3,0-0.3,0-1,0c-0.8-0.3-0.8-0.3-1,0
	c-0.5,0-0.5,0.3-0.8-0.3c-0.3-0.3-0.3-0.5-0.5-1c-0.3-0.8-0.3-1,0-1.3c0.3-0.3,0.3-0.8-0.3-1.8c-0.3-0.5-0.5-1-0.5-1
	c-0.3,0-2.3,1-2.5,1c-0.3,0.3-0.3,0.5,0.8,2c1.5,2,2,2.8,2,2.8s0.5,0,1,0.3c0.8,0,1,0,1.5,0c0.3,0,0.5,0,0.5-0.3
	c0.3,0,0.5,0.5,1,1.3c0.5,1.3,0.5,1.3,1,1.3C101.6,159.9,101.9,159.9,101.9,159.9L101.9,159.9z M143.5,159.9c0-0.3,0-0.3,0-0.5
	c0-0.3-0.3-0.3-0.5-0.3c-0.3,0-0.8,0.3-0.8,0.3c0,0.3,0.5,0.5,0.8,0.5C143.5,159.9,143.5,159.9,143.5,159.9L143.5,159.9z
	 M140.2,160.1c0.5,0,0.8-0.3,1-0.5c0.3-0.3,0.3-0.3,0.3-0.5c0,0,0-0.3-0.3-0.5s-0.3-0.3-0.8-0.5c-0.3,0-0.8,0-1,0
	c-0.5,0-0.5,0-1,0.3s-0.5,0.5-0.3,0.8h0.3c0.3-0.3,0.5-0.3,0.8,0c0.3,0,0.3,0.3,0,0.3v0.3c0,0.3,0.3,0.3,0.3,0.3
	C139.4,160.1,139.7,160.1,140.2,160.1L140.2,160.1z M121.5,160.4c0.3-0.5,0.3-0.5-0.3-1c-0.5-0.5-0.8-0.5-1,0.3
	c-0.3,0.3-0.3,0.5-0.3,0.5c0,0.3,0.5,0.5,1.3,0.5C121.3,160.9,121.3,160.6,121.5,160.4L121.5,160.4z M103.4,161.7
	c0.3-0.3,0.3-0.3,0.5-0.5c0-0.5,0-0.8-0.3-0.8c-0.3,0-0.3,0-0.5,0.3c-0.3,0.3-0.3,0.3-0.3,0.3l0.3,1
	C102.6,161.9,102.9,161.9,103.4,161.7L103.4,161.7z M136.9,164.2c0.5-0.3,0.5-0.5,0.3-0.8c-0.3-0.3-0.8-0.3-0.8,0
	c-0.3,0.3-0.3,0.3,0,0.5C136.4,164.4,136.6,164.4,136.9,164.2L136.9,164.2z M109.7,164.2c0.3-0.3,0.3-0.3,0.3-0.5
	c0-0.5-0.3-0.8-0.3-0.8s0,0-0.3,0h-0.3c0,0-0.3-0.3-0.5-0.3c-0.3-0.5-0.3-0.5,1-0.3c0.5,0,1.3,0,1.5,0c0.8,0,4.8-0.5,5-0.5
	c0.3,0,0.8-0.8,0.8-1s-0.3-0.5-0.5-0.8c0,0-0.3,0-0.5,0.3l-0.5,0.3l-0.3-0.3c0,0-0.5-0.3-0.8-0.3c-0.5-0.3-0.5-0.3-1.3,0.5
	c-0.3,0.3-0.5,0.5-0.8,0.5c-0.3,0-0.8,0-1.3,0.3c-0.8,0-1,0-1.3,0.3c0,0-0.3,0-0.5,0c-0.3,0-0.3-0.3-0.3-0.5s-1-1-1.5-1.3
	c-0.5-0.3-1.3-0.3-1.8-0.3c-0.3,0-0.5,0-0.8,0.3c-0.3,0.3-0.5,0.5-0.5,0.5c0,0.3,0.5,1,1.5,2.3c1,1.3,1.5,1.8,1.8,2
	C109.2,164.4,109.4,164.4,109.7,164.2z M129.8,162.9c-0.3,0.3-0.5,0.3-0.8,0s-0.3-0.5,0-0.8c0.3-0.3,0.3-0.3,0.8,0
	C129.8,162.4,129.8,162.7,129.8,162.9L129.8,162.9z M131.6,161.1c-0.5,0.3-1,0.3-1.8-0.3c-0.3-0.3-0.5-0.5-0.3-0.5
	c0.3,0,0.3-0.5,0-1c0-0.3-0.3-0.5-0.3-0.5c0-0.3,0.5-0.5,0.8-0.5c0,0,0.3,0.3,0.5,0.3c0.5,0.3,0.5,0.3,0.8-0.3
	c0.3-0.8,0.5-1.3,1-1.5c0.3-0.3,0.5-0.5,0.8-0.8c0.3-0.5,0.5-0.5,0.8-0.3c0,0.3,0.3,0.5,0.3,0.5c0.3,0.3,0.3,0.5,0,0.8l-0.3,0.3h0.3
	c0.5,0,0.5,0,1,0.5c0.3,0.3,0.3,0.5,0.3,0.8c0,0.5-0.8,1.3-2,1.8c-0.5,0.3-1,0.5-1,0.5C131.9,160.9,131.6,160.9,131.6,161.1
	L131.6,161.1z M137.4,154.1c-0.3,0.5-0.8,1-0.8,1c-0.3,0-0.5-0.3-0.5-0.5c0-0.3,0.8-2,1-2.5c0.5-0.5,0.5-0.5,0.8,0
	C138.4,152.8,138.4,152.8,137.4,154.1z M133.4,154.3c-0.3,0-0.5,0.3-0.5,0.3c-0.3,0-0.5-0.3-0.5-0.5c0,0,0.3-0.3,0.3-0.5
	c0.3-0.5,0.3-0.5,0.3-0.8c0-0.3,0-0.5,0-0.8c0-0.5,0-0.5-0.3-1.3c-0.5-1.3-0.5-1.3,0-1.5c0.3,0,0.5-0.3,0.5-0.3c0.3,0,0.5,0.8,0.5,1
	c0,0.3,0,0.5,0.3,0.3s0.5-0.3,0.8,0s0.3,0.5,0,0.5s-0.5,0.5-0.8,1c-0.3,0.5-0.3,0.5,0,0.8c0,0.3,0,0.3,0,0.5
	C134.4,153.6,133.9,154.1,133.4,154.3L133.4,154.3z M142.9,153.8c-0.3,0.3-0.3,0.3-0.5,0c0,0-0.3-0.3-0.5-0.3c-0.3,0-0.5,0-0.5-0.3
	s0-0.3,0.5-0.8c0.3-0.3,0.8-0.5,0.8-0.5c0.3,0,1.8,1,1.8,1.3c0,0,0,0.3-0.3,0.3c-0.3,0.3-0.5,0.3-0.8,0.3
	C143.5,153.8,143.2,153.8,142.9,153.8L142.9,153.8z M128.8,153.3c0,0.3-0.3,0.3-0.8,0s-0.8-0.5-0.3-0.8c0.3-0.3,0.5-0.3,0.8,0.3
	C128.6,153.1,128.8,153.3,128.8,153.3L128.8,153.3z M150.3,152.8c0,0.3-0.3,0.3-0.3,0.3s-0.5-0.3-0.5-0.5c0,0,0.5-0.5,0.8-0.5
	C150.5,152.1,150.5,152.3,150.3,152.8L150.3,152.8z M140.2,151.3c-0.5,0.3-0.8,0.5-0.8,0.5s-0.8-0.5-0.8-0.8c-0.3-0.3-0.3-0.3,0-0.3
	c0,0,0.5-0.3,1-0.5c0.8-0.3,0.8-0.3,1-0.3c0.3,0,0.8,1,0.5,1C140.9,150.8,140.7,151.1,140.2,151.3L140.2,151.3z M137.1,151.1
	c-0.5,0.5-0.8,0.3-0.5-0.3c0.3-0.8,0.3-1,0.8-0.5C137.7,150.6,137.7,150.8,137.1,151.1L137.1,151.1z M139.9,146.3
	c-0.3,0.3-0.3,0.5-0.3,0.5s-0.3,0-0.5-0.3c-0.3-0.3-0.8-0.3-1-0.3c-0.5,0-0.5,0-0.8-0.5c-0.5-0.5-0.5-0.8,0.3-1.3l0.5-0.5l-0.8-0.5
	c-0.3-0.3-0.8-0.5-0.8-0.5s0.3-0.3,0.8-0.3c0.8-0.3,0.8-0.3,1.5,0c0.3,0.3,0.5,0.3,1,1.3c0.3,0.8,0.5,1.3,0.5,1.5
	C140.2,145.8,140.2,146,139.9,146.3L139.9,146.3z M124,165.4c0.5-0.5,0.8-0.8,1-0.8c0,0,0.5,0.3,1,0.5c1,0.5,1.3,0.5,2,0.3
	c0.3,0,0.3-0.3,0-0.5c-0.3-0.3-0.3-0.5,0-0.8l0.3-0.3l0.3,0.3c0.3,0.3,0.5,0.3,1,0c0.8-0.5,1.3-0.8,1.5-0.8s0.8,0,0.8-0.3
	s-0.3-0.3-0.5-0.3s-1-0.5-1-0.5s1-0.8,1.3-0.8c0,0,0.5,0.5,1,0.8c0.5,0.5,1,0.8,1,0.8l1-1.8c0,0,0-0.3-0.3-0.3l-0.3-0.3l0.3-0.3
	l0.3-0.3c0.5,0.3,0.8,0.3,1,0.3c0.3,0,0.3,0,0.3-0.5c0-0.3,0-0.5,0-0.5c0-0.3,0.3-0.3,0.5-0.3c0.5,0,0.3,0.3,0.8-1.8
	c0.3-0.8,0.3-1.5,0.3-1.8c0.3-0.5,1.5-2.3,1.5-2.5c0.3-0.3,0.8-0.5,0.8-0.5c0.3,0,0.5,0.3,0.5,1c0,0.5,0,0.5,0.5,1.3
	c0.3,0.5,0.5,0.8,0.8,1l0.3,0.3h1.3c1,0,1.3,0,1.8-0.3c0.8-0.3,0.8-0.3,1-0.8c0-0.3,0-0.5-0.3-1.5c-0.3-1.5-0.3-1.5,0-2
	c0.3-0.3,0.3-0.3,0.5-0.3c0.3,0,0.5-0.3,0.8-0.3c0.5-0.3,0.5-0.3,0.8-0.3c0,0,0.3,0,0.3,0.3c0,0-0.3,0.3-0.3,0.5
	c-0.3,0.3-0.3,0.5-0.3,0.5c0,0.3,0.5,0.3,1.3,0.3c0.8,0,0.8,0,0.8,0.5c0,0.3,0,0.5-0.5,1c-0.5,0.5-0.5,0.8-0.8,0.8
	c-0.3,0-0.3,0-0.5,0c0,0-0.3,0.3-0.5,0.3c-0.3,0.3-0.5,0.5-0.8,1.5c-0.3,0.5-0.5,1.3-0.5,1.3c0,0.5,0.5,0.5,1.3,0.3
	c0.3,0,0.5-0.3,1.3-0.8c0.5-0.3,1-1,1.3-1.3l0.5-0.5h0.5c0.3,0,0.5,0,0.8,0l0.3,0.3c0,0.3,0.3,0.3,0.3,0.3s0.3-0.3,1.8-1.5
	c0.5-0.5,1-1,1-1c0-0.3-0.3-0.5-0.5-0.5c0,0-0.8,0.3-1.3,0.5c-0.8,0.3-1.3,0.5-1.5,0.8c-0.3,0.3-0.5,0.3-0.5,0.3l-0.3-0.3
	c0-0.3,0-0.3,0-0.8c0.3-1,0.3-1,1-1.5c0.8-0.5,0.8-0.5,0.8-1.8c0-0.8,0-1-0.5-1.3l-0.3-0.3l-0.8,0.3l-0.8,0.3l-0.3-0.3
	c0,0-0.3-0.3-0.5-0.5c-0.3-0.3-0.3-0.5-0.3-0.5s-0.5,0.3-0.8,0.3c-0.5,0.3-0.8,0.3-1,0.3c-0.3,0-0.8-0.8-1.5-2c-0.5-1-0.5-1-0.5-1.3
	c0,0,0.3-0.5,0.3-0.8c0-0.3,0-0.8,0.3-1c0.3-0.8,0-1-0.5-0.8c-0.3,0.3-0.3,0.3-0.5,0c-1-0.3-0.8-0.3-1.3,0.3
	c-0.3,0.3-0.3,0.5-0.3,0.5s0,0.3,0.3,0.5c0.3,0.3,0.3,0.5,0.3,0.8c-0.3,0.5-0.3,0.5-0.5,0.3c-0.3,0-0.5,0-0.5,0
	c-0.3,0-0.3,0.5,0,1.3c0.3,0.5,0.3,0.5,1,0.3c0.5,0,0.5,0,0.8,0c0.3,0.3,0.3,0.3,0.3,0.3c-0.3,0.5-0.3,0.8,0,1.3
	c0,0.3,0.3,0.8,0.5,1l0.3,0.8l-0.3,0.3c-0.5,0.3-0.5,0.3-1,0.3c-0.5-0.3-1.3-0.3-1.3,0c0,0-0.3,0-0.5-0.3c-0.3-0.3-0.3-0.3-0.3-0.5
	c0,0,0.3-0.3,0.3-0.5c0.3-0.5,0.5-1,0.5-1.5c0-0.3-0.5-0.8-0.5-0.8s-0.5,0.3-0.5,0.5c0,0,0,0.3,0,0.5c0,0.3,0,0.3,0,0.5
	s-0.3,0.5-0.5,0.5c-0.3,0-0.5-0.3-1-0.8c-0.3-0.3-0.3-0.5-0.3-0.5s-0.3,0-0.5,0.3c-0.3,0.3-0.5,0.3-0.8,0c0-0.3,0-0.3,1.3-1
	c1.3-0.5,1.3-0.5,0.8-2l-0.3-0.8l0.3-0.5c0.3-0.3,0.3-0.5,0.3-0.8c0-0.3,0-0.5,0.3-0.8c0.3-0.8,0.3-0.8-0.3-1
	c-0.3-0.3-0.5,0-1.3,0.5c-0.5,0.3-0.5,0.3-0.8,0.3c-0.5,0-0.5-0.3-1.5-0.8l-0.8-0.5h-1c-0.5,0-1,0-1,0s0,0.5,0.3,1
	c0.3,1,0.3,1-0.3,1.5l-0.3,0.3l-0.5-0.5c-0.3-0.3-0.5-0.5-0.5-0.5s-0.3,0.3-0.5,0.8l-0.5,0.8l-0.5,0.3c-0.5,0.3-0.5,0.3-1,1.8
	c-0.3,0.8-0.3,0.8-0.8,1.3s-0.8,0.8-0.8,0.8s0.3,0.3,0.5,0.5c0.3,0.3,0.5,0.5,0.5,0.8s0,0.5,0.3,0.5l0.3,0.3c0,0.3,0,0.3,0,0.5
	s-0.3,0.3-0.3,0.5c0,0-0.3-0.3-0.5-0.5c-0.3-0.3-0.5-0.5-0.5-0.5s-0.5,0-0.8,0.3l-0.5,0.3l-0.3-0.3c-0.3-0.3-0.3-0.3-0.3-0.5
	c0.3-0.3,0.3-0.3,0-0.5c-0.3-0.3-0.3-0.3-0.5-0.3l-0.3,0.3c-0.3,0-0.3,0.3-0.5,1c-0.3,0.8-0.3,0.8-0.5,1c0,0-0.3,0.3-0.5,0.3
	l-0.3,0.3l-0.3-0.3c-0.3,0-0.5-0.3-0.5-0.3c-0.3-0.3-0.3-0.3-1.3,0.3c-0.5,0.3-1,0.3-1.3,0.3c-0.3,0-0.8,0.5-0.8,0.8
	c0,0.5,0.5,1,1.3,0.8c0.5,0,0.5,0,1.8,0c0.8,0,1,0,1.8,0.5c0.5,0.3,1,0.5,1,0.5c0.3,0.3,1.3,1.8,1.3,2c0,0.3,0,0.3-0.8,1
	c-0.8,0.5-1,0.8-0.8,1c0,0,0.3,0,0.8,0c1,0,1,0,0.3,0.8c-0.3,0.5-0.5,0.8-0.5,0.8c0,0.3,0.3,0.5,0.8,0.5c0.3,0,0.3,0.3,0.3,0.3
	s-0.3,0.3-0.5,0.3l-0.5,0.3l-0.5,1l-0.5,1h-0.8h-0.8l-0.8,0.5c-0.5,0.5-0.8,0.8-0.8,1C123.5,164.7,123.5,164.9,124,165.4
	C123.8,165.9,123.8,165.9,124,165.4L124,165.4z M131.1,168.7c0-0.3-0.5-1-0.8-1.3c-0.3-0.3-0.3-0.3-0.3-0.8c0-0.3-0.3-0.5-0.3-0.8
	c-0.3-0.3-0.8-0.5-1-0.5c-0.3,0-1.3,1.8-1.3,2c0,0,0.5,0.3,1.5,0.8C130.8,168.7,130.8,169,131.1,168.7L131.1,168.7z M106.7,170.7
	l0.8-0.3v-0.3c0-0.3,0-0.5-0.3-1c-0.5-0.8-1.8-2.5-1.8-2.8c0,0-0.3-0.3-0.5-0.3c-0.3,0-0.5-0.3-0.8-0.3l-0.3-0.3l-0.3,0.3
	c0,0-0.3,0.3-0.3,0.5c0,0.3,0,0.5,0,1c0.3,0.8,0.3,0.8,0.8,1.3s0.5,0.5,1,0.8c0.3,0,0.5,0.3,0.5,0.3s0,0.3-0.3,0.3
	c-0.3,0.3-0.3,0.3-0.3,0.3c0,0.3,0.5,0.5,0.8,0.5C105.9,171,106.1,170.7,106.7,170.7L106.7,170.7z M166.1,139.7
	c0,22.4-18.1,40.8-40.8,40.8s-40.8-18.1-40.8-40.8s18.1-40.8,40.8-40.8S166.1,117,166.1,139.7z"/>
</svg>
