<?xml version="1.0" encoding="utf-8"?>
<!-- Generator: Adobe Illustrator 22.1.0, SVG Export Plug-In . SVG Version: 6.00 Build 0)  -->
<svg version="1.1"
	 id="svg2" xmlns:cc="http://creativecommons.org/ns#" xmlns:dc="http://purl.org/dc/elements/1.1/" xmlns:rdf="http://www.w3.org/1999/02/22-rdf-syntax-ns#"
	 xmlns="http://www.w3.org/2000/svg" xmlns:xlink="http://www.w3.org/1999/xlink" x="0px" y="0px" viewBox="0 0 256 256"
	 style="enable-background:new 0 0 256 256;" xml:space="preserve">
<style type="text/css">
	.st0{opacity:0.5;fill:#B9C1C6;stroke:#2841DB;stroke-width:0.5;stroke-miterlimit:10;enable-background:new    ;}
</style>
<path id="mainsymbolpath_9_" class="st0" d="M77.8,96c0.7,5.8,1.6,11.5,2.9,16.6c1.6,0,4.9,0,5.2,0.7c0.2,0.9-2.7,1.6-4.5,2
	c0.9,3.6,2.2,7,3.6,9.9c1.3-0.7,4.7-2,4.9-1.3c0.4,0.7-2.5,2.5-4,3.4c1.8,3.4,4,6.5,6.5,9c0.9-0.7,3.6-3.1,4.3-2.9
	c0.4,0.2-1.3,2.9-2.5,4.5c2.7,2.2,5.8,3.8,9.2,4.9c1.3-0.9,3.4-3.6,4-3.6c0.4,0-0.4,2.9-0.9,4.3c3.8,0.7,8.3,0.9,13,0.2
	c-0.4,4.3-2.5,8.3-4.7,10.8c-0.9,1.1-3.1,2-3.1,2.7c0,0.9,1.8,0.7,2.5,0.7c0.9,0,2.2,0,3.1-0.7c1.3-0.9,3.8-3.1,5.4-5.2
	c0,0.9-0.2,2.7-0.7,4c-0.2,0.7-0.9,1.8-0.9,2c0.2,0.4,1.1,0.4,1.6,0.4c0.7,0,1.6,0,2.2-0.7c1.3-1.3,1.8-5.8,2.7-5.8
	c0.9,0,1.3,4.5,2.7,5.8c0.4,0.4,1.3,0.7,2.2,0.7c0.4,0,1.3,0,1.6-0.4c0-0.2-0.7-1.3-0.9-2c-0.4-1.3-0.7-3.1-0.7-4
	c1.6,1.8,4,4.3,5.4,5.2c0.9,0.7,2.2,0.7,3.1,0.7c0.7,0,2.5,0.2,2.5-0.7c0-0.7-2.2-1.8-3.1-2.7c-2-2.5-4-6.5-4.7-10.8
	c4.9,0.7,9.2,0.4,13-0.2c-0.4-1.3-1.6-4.5-0.9-4.3c0.4,0,2.7,2.7,4,3.6c3.6-1.1,6.7-2.7,9.2-4.9c-1.1-1.6-2.9-4.3-2.5-4.5
	c0.7-0.2,3.4,2,4.3,2.9c2.5-2.5,4.7-5.6,6.5-9c-1.6-0.9-4.3-2.9-4-3.4c0.2-0.7,3.6,0.9,4.9,1.3c1.3-3.1,2.5-6.3,3.6-9.9
	c-2-0.4-4.9-1.1-4.5-2c0.2-0.7,3.8-0.7,5.2-0.7c1.3-5.2,2.2-10.8,2.9-16.6c-3.8,0-25,7.4-28.3,7.6c-0.4,11.9-1.3,18.4-16.2,18.7
	c0,0,1.3-0.7,1.8-2c0.7-1.3,1.3-3.6,1.6-5.4c-0.2,0.2-0.7,0.7-1.1,0.9c0.4-0.7,1.6-1.6,1.3-3.4c-0.2,0.4-0.7,0.9-1.1,1.1
	c1.6-2.9,2.2-4.9,2-9c-1.3,1.8-3.8,4-6.1,4.7c-2,0.9-4.9,0.9-6.7,1.3c-1.8,0.4-3.4,1.3-4.5,2.5c-1.1,0.9-0.9,1.6-0.9,2.2
	c-2,0.4-4.3,1.6-5.4,2.7c-0.7,0.9-0.7,2.5-0.7,3.4c-7.2-2.5-7.6-8.3-8.1-17.5C102.8,103.7,81.6,96,77.8,96z M119.2,121
	c0.9,0,2,0,2.2,0.2c0.4,0.2,0.9,1.3,0.9,1.3c-2.9,0-5.2-0.4-7.2-0.9c0.7-0.2,1.3-0.4,1.8-0.4C117.1,121,118,121,119.2,121z"/>
</svg>
