<?xml version="1.0" encoding="utf-8"?>
<!-- Generator: Adobe Illustrator 22.1.0, SVG Export Plug-In . SVG Version: 6.00 Build 0)  -->
<svg version="1.1"
	 id="svg2" xmlns:cc="http://creativecommons.org/ns#" xmlns:dc="http://purl.org/dc/elements/1.1/" xmlns:rdf="http://www.w3.org/1999/02/22-rdf-syntax-ns#"
	 xmlns="http://www.w3.org/2000/svg" xmlns:xlink="http://www.w3.org/1999/xlink" x="0px" y="0px" viewBox="0 0 256 256"
	 style="enable-background:new 0 0 256 256;" xml:space="preserve">
<style type="text/css">
	.st0{opacity:0.5;enable-background:new    ;}
	.st1{fill:#3A3A39;}
</style>
<g id="mainsymbolpath_6_" class="st0">
	<path d="M126.9,105.5c1.7,0,3,1,3,2V172c0,1-1,2.7-3,2.7v1.3h15.4v-1.3c-1.7,0-3-1.7-3-2.7v-32c3.7,0,5,8.3,5,13h1.7v-30.7h-1.7
		c0,4-1.3,11.4-5,11.4v-25c8,0,10.3,17.4,10.3,21h2v-25.4h-25L126.9,105.5L126.9,105.5z M96.2,105.5c1.7,0,3,1,3,2V172
		c0,1-1,2.7-3,2.7v1.3h15.4v-1.3c-1.7,0-3-1.7-3-2.7v-32c3.7,0,5,8.3,5,13h1.7v-30.7h-1.3c0,4-1.3,11.4-5,11.4v-25
		c8,0,10.3,17.4,10.3,21h2v-25.4h-25L96.2,105.5L96.2,105.5z"/>
	<g>
		<path class="st1" d="M126.9,105.5c0.7,0,1.7,0.3,2.3,0.7s1,1,1,2v4.7v9l0.3,18.4v18.4v9v4.7c0,1.7-1.3,3.3-3.3,3.3l0.3-0.3v1.3
			l-0.3-0.7h15.4l-0.3,0.3V175l0.3,0.3c-1.7,0-3.3-1.7-3.3-3.3v-4.7v-9v-18v-0.3h0.3c1.7,0,2.7,1.3,3.3,2.3s1,2.3,1.3,3.7
			c0.7,2.3,1,5,1,7.3L145,153h1.7l-0.3,0.3v-30.7l0.3,0.3H145l0.3-0.3c0,2.3-0.3,4.7-1,6.7c-0.3,1-0.7,2.3-1.3,3c-0.7,1-1.7,2-3,2
			h-0.3v-0.3v-25.4v-0.3h0.3c2.3,0,4.3,1.7,5.7,3.3c1.3,1.7,2.3,3.7,3,5.7c1.3,4,2.3,8.3,2.3,12.4l-0.3-0.3h2l-0.3,0.3
			c0-8.3,0-17,0-25.4l0.3,0.3l-25-0.3l0,0L126.9,105.5z M126.9,105.5v-1.3l0,0l0,0l25-0.3h0.3v0.3c0,8.3,0,17,0,25.4v0.3H152h-2
			h-0.3v-0.3c-0.3-4-1-8.3-2.3-12.4c-0.7-2-1.7-4-2.7-5.3c-1.3-1.7-3-3-5-3l0.3-0.3v25l-0.3-0.3c1,0,1.7-0.7,2.3-1.3
			c0.7-1,1-2,1.3-3c0.7-2,1-4.3,1-6.3v-0.3h0.3h1.7h0.3v0.3v30.7v0.3h-0.3h-1.7h-0.3v-0.3c0-2.3-0.3-5-1-7.3
			c-0.3-1.3-0.7-2.3-1.3-3.3s-1.3-2-2.3-2l0.3-0.3v18v9v4.7c0,1.3,1.3,2.7,2.3,2.7h0.3v0.3v1.3v0.3h-0.3h-15h-0.3v-0.3V175v-0.3h0.3
			c1.3,0,2.7-1.3,2.3-2.7v-4.7v-9v-18.4l0.3-18.4v-9v-4.7c0-0.7-0.3-1.3-1-2C128.6,105.9,127.9,105.9,126.9,105.5z"/>
		<path class="st1" d="M96.2,105.5c0.7,0,1.7,0.3,2.3,0.7s1,1,1,2v4.7v9l0.3,18.4v18.4v9v4.7c0,1.7-1.3,3.3-3.3,3.3l0.3-0.3v1.3
			l-0.3-0.3h15.4l-0.3,0.3v-1.3l0.3,0.3c-1.7,0-3.3-1.7-3.3-3.3v-4.7v-9v-18v-0.3h0.3c1.7,0,2.7,1.3,3.3,2.3s1,2.3,1.3,3.7
			c0.7,2.3,1,5,1,7.3l-0.7-1h1.7l-0.3,0.3v-30.7l0.3,0.3h-1.7l0.3-0.3c0,2.3-0.3,4.7-1,6.7c-0.3,1-0.7,2.3-1.3,3c-0.7,1-1.7,2-3,2
			h-0.3v-0.3v-25v-0.3h0.3c2.3,0,4.3,1.7,5.7,3.3c1.3,1.7,2.3,3.7,3,5.7c1.3,4,2.3,8.3,2.3,12.4l-0.3-0.3h2l-0.3,0.3
			c0-8.3,0-17,0-25.4l0.3,0.3l-25-0.3l0,0L96.2,105.5z M96.2,105.5v-1.3l0,0l0,0l25-0.3h0.3v0.3c0,8.3,0,17,0,25.4v0.3h-0.3h-2h-0.3
			v-0.3c-0.3-4-1-8.3-2.3-12.4c-0.7-2-1.7-4-2.7-5.3c-1.3-1.7-3-3-5-3l0.3-0.3v25l-0.3-0.3c1,0,1.7-0.7,2.3-1.3c0.7-1,1-2,1.3-3
			c0.7-2,1-4.3,1-6.3v-0.3h0.3h1.7h0.3v0.3v30.7v0.3h-0.3h-1.7h-0.3v-0.3c0-2.3-0.3-5-1-7.3c-0.3-1.3-0.7-2.3-1.3-3.3
			c-0.7-1-1.3-2-2.3-2l0.3-0.3v18v9v4.7c0,1.3,1.3,2.7,2.3,2.7h0.3v0.3v1.3v0.3h-0.3H96.2h-0.3v-0.3V175v-0.3h0.3
			c1.3,0,2.7-1.3,2.3-2.7v-4.7v-9v-18.4l0.3-18.4v-9v-4.7c0-0.7-0.3-1.3-1-2C97.9,105.9,97.2,105.9,96.2,105.5z"/>
	</g>
</g>
</svg>
