<?xml version="1.0" encoding="utf-8"?>
<!-- Generator: Adobe Illustrator 22.1.0, SVG Export Plug-In . SVG Version: 6.00 Build 0)  -->
<svg version="1.1"
	 id="svg2" xmlns:cc="http://creativecommons.org/ns#" xmlns:dc="http://purl.org/dc/elements/1.1/" xmlns:rdf="http://www.w3.org/1999/02/22-rdf-syntax-ns#"
	 xmlns="http://www.w3.org/2000/svg" xmlns:xlink="http://www.w3.org/1999/xlink" x="0px" y="0px" viewBox="0 0 256 256"
	 style="enable-background:new 0 0 256 256;" xml:space="preserve">
<style type="text/css">
	.st0{opacity:0.5;fill:#EFB33A;stroke:#60050E;stroke-width:0.5;stroke-miterlimit:10;enable-background:new    ;}
</style>
<path id="mainsymbolpath_7_" class="st0" d="M159.8,95.9c-1.9,0-4.6-0.5-6.9,1.8c-2.3,2.3-1.9,4.8-1.9,4.8l-3.9,3.7
	c-1.2-0.5-3-0.4-4.6,0.2l-4.2-6.6l-8.9-0.4l-4.2,6l1.9,8.5l3.7-7.1l2.7,0.2l2.5,5l-1.8,5l-32.4,26.9l-6,16.3l16.3-6l26.7-32.4l5-1.8
	l5,2.5l0.2,2.7l-7.1,3.7l8.5,1.9l6-4.2l-0.4-8.9l-6.6-4.2c0.5-1.6,0.7-3.4,0.2-4.6l3.9-3.9c0,0,2.7,0.2,4.8-1.9
	C160.4,100.5,159.8,97.8,159.8,95.9L159.8,95.9z M145.1,110.6c0.9,0.9,0.4,2.8-1.2,4.4c-1.6,1.6-3.5,2.1-4.4,1.2
	c-0.9-0.9-0.4-2.8,1.2-4.4C142.3,110.2,144.3,109.7,145.1,110.6z"/>
</svg>
