<?xml version="1.0" encoding="utf-8"?>
<!-- Generator: Adobe Illustrator 22.1.0, SVG Export Plug-In . SVG Version: 6.00 Build 0)  -->
<svg version="1.1"
	 id="svg2" xmlns:cc="http://creativecommons.org/ns#" xmlns:dc="http://purl.org/dc/elements/1.1/" xmlns:rdf="http://www.w3.org/1999/02/22-rdf-syntax-ns#"
	 xmlns="http://www.w3.org/2000/svg" xmlns:xlink="http://www.w3.org/1999/xlink" x="0px" y="0px" viewBox="0 0 256 256"
	 style="enable-background:new 0 0 256 256;" xml:space="preserve">
<style type="text/css">
	.st0{opacity:0.5;stroke:url(#mainsymbolpath_1_);stroke-miterlimit:10;enable-background:new    ;}
</style>
<radialGradient id="mainsymbolpath_1_" cx="122.8638" cy="654.5071" r="43.1157" gradientTransform="matrix(1 0 0 1 0 -534)" gradientUnits="userSpaceOnUse">
	<stop  offset="0" style="stop-color:#FFFFFF"/>
	<stop  offset="1" style="stop-color:#000000"/>
</radialGradient>
<path id="mainsymbolpath_10_" class="st0" d="M88.9,130.4l-9.4,6.6l-0.7-1c-0.5-0.8-1.7-1-2.5-0.5l0,0c-0.8,0.5-1,1.7-0.5,2.5
	l12.9,18.3c0.5,0.8,1.7,1,2.5,0.5l0,0c0.8-0.5,1-1.7,0.5-2.5l-0.7-1l9.4-6.6c4.5-3.1,5.6-9.4,2.5-13.9
	C99.7,128.5,93.4,127.3,88.9,130.4L88.9,130.4z M80.8,146.8l-1.5,1.2c-1-0.5-2.1-0.5-3.1,0.2c-1.3,0.8-1.7,2.6-0.7,4
	c0.8,1.3,2.6,1.7,4,0.7c1-0.7,1.3-1.8,1.2-2.8l1.5-1.2L80.8,146.8z M144.6,83.9c-10.6,0-15.4,5.8-17.5,10.4
	c-4.6-0.3-9.6-0.5-9.9-0.3c-0.7,0.2-2,1.5-1.2,3c0.7,1.2,6.6,2.6,9.4,3.3c-0.2,1.7-0.5,3.6-0.7,5.6c-2.3-1.5-5.1-2.8-6.8-1.8
	c-3.6,1.8-3.8,7.4-1.7,10.2c1.7,2,5.5,2.6,7.6,2.8c0,0.8,0,1.5,0,1.7c0,1.3,0.7,3.5,3.3,3.5s3.3-3,5.1-4.8c1.8-1.8,5.8-5,9.3-5
	c3,0,5.8,3.3,5.8,7.4s-4.3,5.6-6.3,6.1c-2,0.5-5.6,0.7-5.6,2.1c0,1.2,0.8,2.3,9.9,0.7c1.5-0.2,3.1-0.7,5-1
	c2.1,21.3,11.6,29.2,19.8,28.9v-27.4c-2.8,4.1-10.4,4.8-15.2-3.3c6.3-2.5,12.4-7.4,12.4-17.2C167.9,95.1,159.8,83.9,144.6,83.9
	L144.6,83.9z M112.7,118.2c-3,0-8.4,3-8.4,7.6c0,3,4.1,4.5,7.3,2c0.2,4.6,1.3,5.8,3.1,4.6c8.4,12.9,27.1,17.2,37,11.9l-3.5-11.2
	c-5.1,3.3-5.3,4.8-15,4.8c-10.1,0-16.2-4.6-16.2-8.9v-7.1C117.2,120.4,115.7,118.2,112.7,118.2z"/>
</svg>
