<?xml version="1.0" encoding="utf-8"?>
<!-- Generator: Adobe Illustrator 22.1.0, SVG Export Plug-In . SVG Version: 6.00 Build 0)  -->
<svg version="1.1"
	 id="svg2" xmlns:cc="http://creativecommons.org/ns#" xmlns:dc="http://purl.org/dc/elements/1.1/" xmlns:rdf="http://www.w3.org/1999/02/22-rdf-syntax-ns#"
	 xmlns="http://www.w3.org/2000/svg" xmlns:xlink="http://www.w3.org/1999/xlink" x="0px" y="0px" viewBox="0 0 256 256"
	 style="enable-background:new 0 0 256 256;" xml:space="preserve">
<style type="text/css">
	.st0{opacity:0.5;fill:#0D2BD6;stroke:#DD12D3;stroke-width:0.25;stroke-miterlimit:10;enable-background:new    ;}
</style>
<path id="mainsymbolpath_11_" class="st0" d="M139,85.6l1,7.1c-8.3,1.2-14.1,4.4-16.6,12.7l6.1-3.4l3.9,6.1l6.6-5.4l5.1,7.8l5.6-4.4
	l3.9,5.4c-0.5-5.1-1.2-10.2-2.9-13.1c-1.7-2.4-4.6-4.4-7.5-5.4l3.9-5.6L139,85.6z M128.8,105.1l-2.7,1.5c-1.2,2.4-2.7,5.6-5.8,7.3
	c-2.7,1.7-11.7,2.7-18.5,10.7c-3.9,4.6-4.1,13.1-0.2,19.2c3.7,5.6,11.7,9.7,19.5,10c7.5,0.2,18.8-1.9,25.8-12.4
	c5.1-7.5,4.9-22.4,4.6-30.7l0,0l-1.2-1.5l-5.6,4.4l-5.1-7.5l-6.6,5.4L128.8,105.1z M126.4,114.3c2.7,0,5.1,1.7,5.1,3.7
	c0,0.5-0.2,1.2-0.7,1.7c-0.2-1.2-1.7-2.4-3.4-2.4c-1.9,0-4.1,1.5-4.1,3.4c0,0.7,0.2,1.5,1,1.9c0,0,0,0-0.2,0c-2.9,0-3.7-1.5-3.7-2.9
	C120.5,117,123.2,114.3,126.4,114.3L126.4,114.3z M137.1,115c4.1,0,7.1,2.7,7.1,5.4c0,2.2-1,3.4-3.2,3.4c-0.7,0-1.2-0.2-1.9-0.5
	c0.7-0.5,1.2-1.5,1.2-2.2c0-1.7-1.7-3.4-4.1-3.4c-1,0-1.7,0.2-2.4,0.7C133.7,116.3,134.9,115,137.1,115z"/>
</svg>
