<?xml version="1.0" encoding="utf-8"?>
<!-- Generator: Adobe Illustrator 22.1.0, SVG Export Plug-In . SVG Version: 6.00 Build 0)  -->
<svg version="1.1"
	 id="svg2" xmlns:cc="http://creativecommons.org/ns#" xmlns:dc="http://purl.org/dc/elements/1.1/" xmlns:rdf="http://www.w3.org/1999/02/22-rdf-syntax-ns#"
	 xmlns="http://www.w3.org/2000/svg" xmlns:xlink="http://www.w3.org/1999/xlink" x="0px" y="0px" viewBox="0 0 256 256"
	 style="enable-background:new 0 0 256 256;" xml:space="preserve">
<style type="text/css">
	.st0{opacity:0.5;fill:#EAB318;enable-background:new    ;}
</style>
<path id="mainsymbolpath_12_" class="st0" d="M95,93.3c3.8,4.8,7.3,9.6,8.9,15.9h0.5c0.3-1.8,1-3,1.8-4l9.6,9.6l-4.3,4.3l-5.1-5.1
	c-0.5-0.3-1.3,2.5,1,5.1c-1.3,1.3-7.3,7.3-6.8,14.9c0.8,11.1,6.3,19.7,7.3,21.5c1,1.5,1.3,2.3,1.3,2.8c0,0.3,0,0.3-0.3,0.3
	s0-0.5-0.5-0.5c-0.3,0-0.8,0.5-0.8,0.8c0,1,1.3,1.8,2,1.5c1.8-0.3,3.3-2,3-4.6c-0.3-4.8-3.5-11.6-1-18c1.8-4.6,4-7.6,5.3-8.9
	c0.5,0,1,0,1.5-0.5c0.8-0.8,0.5-1.8,0-2.3l-1-1l4.3-4.3L136,135l0.5,4.6l12.4,12.4c0,0,0.3-0.3,0-1c-0.3-0.5-3.8-8.1-3.8-8.1
	s7.6,3.5,8.1,3.8s1,0,1,0l-12.4-12.4l-4.6-0.5l-14.2-14.2l4.3-4.3l1,1c0.5,0.5,1.5,0.8,2.3,0c0.5-0.5,0.5-1,0.5-1.5
	c1.5-1.3,4.6-3.8,8.9-5.3c6.3-2.3,13.4,0.8,18,1c2.5,0.3,4.3-1.3,4.6-3c0.3-0.8-0.8-2-1.5-2c-0.3,0-0.8,0.3-0.8,0.8s0.5,0.3,0.5,0.5
	c0,0.3-0.3,0.3-0.3,0.3c-0.5,0-1.3-0.3-2.8-1.3c-1.5-1-10.4-6.6-21.5-7.3c-7.6-0.5-13.7,5.3-14.9,6.8c-2.5-2.3-5.3-1.5-5.1-1
	l5.1,5.1l-4.3,4.3l-9.6-9.6c1-0.8,2.3-1.5,4-1.8v-0.5c-6.1-1.5-11.1-5.1-15.9-8.9H95L95,93.3z"/>
</svg>
