<?xml version="1.0" encoding="utf-8"?>
<!-- Generator: Adobe Illustrator 22.1.0, SVG Export Plug-In . SVG Version: 6.00 Build 0)  -->
<svg version="1.1"
	 id="svg2" xmlns:cc="http://creativecommons.org/ns#" xmlns:dc="http://purl.org/dc/elements/1.1/" xmlns:rdf="http://www.w3.org/1999/02/22-rdf-syntax-ns#"
	 xmlns="http://www.w3.org/2000/svg" xmlns:xlink="http://www.w3.org/1999/xlink" x="0px" y="0px" viewBox="0 0 256 256"
	 style="enable-background:new 0 0 256 256;" xml:space="preserve">
<style type="text/css">
	.st0{opacity:0.5;fill:#1BCE11;enable-background:new    ;}
</style>
<path id="path3747" inkscape:connector-curvature="0" class="st0" d="M142.1,71.1c-5.5,5.7-12.6,10.7-26.3,17.2
	c-1.4,1.9-8.8,13.1-9.6,23.3c-1.4,12.3,5.5,17,9,19.4c-1.9-2.7-4.1-9-1.9-13.7c-0.8-1.4-1.1-3.8-0.5-5.7c-2.7,2.2-3.8,6-3.8,7.7
	c-1.9-9.8,4.7-13.1,9-15.3c4.1-1.9,6.8-3.6,8.2-4.9c-2.2,0.5-5.7,1.1-7.7,1.4c0.3-0.5,0.8-1.1,1.1-1.9c1.6-0.3,8.2-1.6,9.8-2.7
	c1.4-1.1,2.7-2.7,3.8-4.4c-3.8,1.4-7.7,2.5-11.8,3.3c0.3-0.5,0.8-1.4,1.1-1.9c2.7-0.8,9.3-2.7,12.6-4.7c1.6-2.2,2.7-5.2,3-5.5
	c-2.2,1.9-9.6,5.2-14,6.6c0.3-0.8,0.8-1.6,1.1-2.2c3-1.1,13.1-6,14.2-8.2C140.4,76.3,141.5,73.9,142.1,71.1z M134.7,104
	c7.1,3.3,13.1,8.8,17,15.6c3.8,6.6,6.6,15,8.5,26.8c1.6-5.5,2.2-11.2,2.5-17c-0.8-1.6-3-3.3-4.7-5.2c0-0.8-0.3-1.6-0.3-2.5
	c1.9,1.4,3.6,2.7,5.2,4.4c0-2.2-0.3-4.1-0.5-6.3c-1.4-0.5-3.8-1.6-5.7-2.5c-0.3-0.8-0.5-1.4-0.8-2.2c1.9,0.8,4.1,1.6,5.7,2.2
	c-0.5-1.6-1.1-3-1.6-4.4c-1.9-0.8-3.8-1.4-6-1.9c-0.3-0.5-0.8-1.4-1.1-1.9c1.4,0.3,4.4,0.8,5.7,1.4c-1.9-1.9-3-2.7-4.4-4.1
	C147.5,105.1,141.3,104.2,134.7,104L134.7,104z M138.5,113.8c1.9,4.7,3.3,13.7-1.4,21.1c-5.2,8.5-13.4,14.8-21.9,20.5
	c-2.7,12.3-10.7,26.5-16.4,33.9c0.8-0.3,13.7-9,15.6-10.4c2.7-6.6,4.4-13.4,4.7-18.6c0.8-0.3,1.6-0.8,2.5-1.4
	c0.3,6.3-2.2,16.1-2.2,16.1l8.2-6.6c0.3-2.7,0.5-8.8,0-13.4c0.5-0.5,1.4-1.4,1.9-1.9c1.4,5.2,1.6,12,1.6,12s4.7-4.1,6.3-6.3
	c-0.5-3.8-1.4-7.7-2.7-11.2c0.5-0.5,1.1-1.4,1.6-1.9c1.6,3,2.7,6.6,3.8,9.8c0,0,4.1-5.5,4.9-7.1c-1.1-3-2.7-5.7-4.7-8.2
	c0.5-0.8,0.8-1.4,1.1-2.2c1.1,1.1,3.6,4.9,4.7,7.1c1.9-4.9,2.7-10.4,1.9-15.6C146.7,123.4,143.4,117.6,138.5,113.8z M125.4,114.9
	c-0.3,0-0.5,0-0.8,0c-4.9,0.5-8.2,4.7-7.9,9.3c0.5,4.9,4.7,8.2,9.3,7.9c4.7-0.5,8.2-4.7,7.9-9.3C133.6,118.5,130,114.9,125.4,114.9
	L125.4,114.9z M98.3,119.3c-4.1,1.1-9.8,4.7-11.8,7.1c1.4-0.3,4.1-0.8,6-1.4c0,0.5,0,1.1,0,1.6c-2.5,0.8-7.7,2.2-7.7,2.5
	c-0.5,1.1-0.8,2.5-0.8,3.8c3-0.8,6.3-1.9,8.8-2.7c0.3,0.5,0.5,1.1,0.8,1.6c-3,1.4-9.3,3.3-9.3,3.3c0.3,1.4,1.1,2.2,2.2,3.3
	c2.7-1.1,6.8-2.7,9.3-3.8c0.3,0.5,0.8,0.8,1.4,1.1c-2.5,1.4-9,4.1-9,4.1c1.4,1.1,3,1.6,4.9,2.2c2.5-1.1,6-2.7,8.2-3.8
	c0.5,0.3,1.1,0.5,1.9,0.8c-2.2,1.4-5.7,3.3-6.8,3.8c6.8,1.1,20.2-1.1,26.5-4.7c-1.1,0-1.9-0.3-3-0.3c-10.7-1.1-18.6-5.5-21.3-10.4
	C96.4,123.9,97.2,121.2,98.3,119.3L98.3,119.3z"/>
</svg>
