<?xml version="1.0" encoding="utf-8"?>
<!-- Generator: Adobe Illustrator 22.1.0, SVG Export Plug-In . SVG Version: 6.00 Build 0)  -->
<svg version="1.1"
	 id="svg2" xmlns:cc="http://creativecommons.org/ns#" xmlns:dc="http://purl.org/dc/elements/1.1/" xmlns:rdf="http://www.w3.org/1999/02/22-rdf-syntax-ns#"
	 xmlns="http://www.w3.org/2000/svg" xmlns:xlink="http://www.w3.org/1999/xlink" x="0px" y="0px" viewBox="0 0 256 256"
	 style="enable-background:new 0 0 256 256;" xml:space="preserve">
<style type="text/css">
	.st0{opacity:0.5;fill:#0A0A8E;enable-background:new    ;}
</style>
<path id="mainsymbolpath_15_" class="st0" d="M117.6,89.7l-1.1,3.2l-0.6,3.4c-1.6,0.2-3.1,0.6-4.6,1.2l-2.1-2.5l-2.6-2.2l-4,2.4
	l0.6,3.4l1.1,3.1c-1.2,1-2.4,2.1-3.4,3.4l-3.1-1.1l-3.4-0.6l-2.4,4l2.2,2.6l2.5,2.1c-0.5,1.5-1,3-1.2,4.6l-3.4,0.6l-3.2,1.1v4.6
	l3.2,1.1l3.4,0.6c0.2,1.6,0.6,3.1,1.2,4.6l-2.5,2.1l-2.2,2.6l2.4,4l3.4-0.6l3.1-1.1c1,1.2,2.1,2.4,3.4,3.4l-1.1,3.1l-0.6,3.4l4,2.4
	l2.6-2.2l2.1-2.5c1.5,0.5,3,1,4.6,1.2l0.6,3.4l1.1,3.2h4.6l1.1-3.2l0.6-3.4c1.6-0.2,3.1-0.6,4.6-1.2l2.1,2.5l2.6,2.2l4-2.4l-0.6-3.4
	l-1.1-3.1c1.2-1,2.4-2.1,3.4-3.4l3.1,1.1l3.4,0.6l2.4-4l-2.2-2.6l-2.5-2.1c0.5-1.5,1-3,1.2-4.6l3.4-0.6l3.2-1.1v-4.6l-3.2-1.1
	l-3.4-0.6c-0.2-1.6-0.6-3.1-1.2-4.6l2.5-2.1l2.2-2.6l-2.4-4l-3.4,0.6l-3.1,1.1c-1-1.2-2.1-2.4-3.4-3.4l1.1-3.1l0.6-3.4l-4-2.4
	l-2.6,2.2l-2.1,2.5c-1.5-0.5-3-1-4.6-1.2l-0.6-3.4l-1.1-3.2H117.6z M120,113.5c4,0,7.2,3.2,7.2,7.2c0,4-3.2,7.2-7.2,7.2
	s-7.2-3.2-7.2-7.2C112.7,116.8,116,113.5,120,113.5z"/>
</svg>
