<?xml version="1.0" encoding="utf-8"?>
<!-- Generator: Adobe Illustrator 22.1.0, SVG Export Plug-In . SVG Version: 6.00 Build 0)  -->
<svg version="1.1"
	 id="svg2" xmlns:cc="http://creativecommons.org/ns#" xmlns:dc="http://purl.org/dc/elements/1.1/" xmlns:rdf="http://www.w3.org/1999/02/22-rdf-syntax-ns#"
	 xmlns="http://www.w3.org/2000/svg" xmlns:xlink="http://www.w3.org/1999/xlink" x="0px" y="0px" viewBox="0 0 256 256"
	 style="enable-background:new 0 0 256 256;" xml:space="preserve">
<style type="text/css">
	.st0{opacity:0.5;fill:#960606;enable-background:new    ;}
</style>
<path id="mainsymbolpath_14_" class="st0" d="M120,150c5.5,0,12.1-0.6,15.1-3.9c2.2-2.3,2.8-6.7,2.7-9.7c-1.2-1.7-6.7-6.2-17.8-6.2
	s-16.6,4.5-17.8,6.2c0,3,0.5,7.4,2.7,9.7C107.8,149.3,114.4,150,120,150z M111.4,138.2c0,2.8,0.3,5.4,1.7,5.4s1.7-2.5,1.7-5.3
	c0-2.8,0-5.3-1.5-5.3C111.7,132.9,111.4,135.4,111.4,138.2z M128.5,138.2c0,2.8-0.3,5.4-1.7,5.4s-1.7-2.5-1.7-5.3
	c0-2.8,0-5.3,1.5-5.3S128.5,135.4,128.5,138.2z M90.2,121.7c0,1.9,0.3,3.7,0.6,5.3c4.8-3.7,7.5-14.4,4.8-22.3
	C91.8,110.6,90.2,117.2,90.2,121.7z M100.5,140.4c-5.5-2.1-12.8-6.7-12.8-18.6s9.8-33.7,32.3-33.7s32.3,21.7,32.3,33.7
	s-7.4,16.6-12.8,18.6c-0.8,8.8-7.5,12-19.5,12S101.3,149.1,100.5,140.4z M144.5,104.7c-2.7,7.9,0,18.6,4.8,22.3
	c0.4-1.5,0.6-3.2,0.6-5.3C149.8,117.2,148.1,110.6,144.5,104.7z M120,93c-8.4,0-15.2,6.6-15.2,14.7s6.8,14.7,15.2,14.7
	s15.2-6.6,15.2-14.7S128.3,93,120,93z"/>
</svg>
